<svg xmlns="http://www.w3.org/2000/svg" id="_x31_px" height="512" viewBox="0 0 24 24" width="512"><path d="m12.5 17c-2.481 0-4.5-2.019-4.5-4.5s2.019-4.5 4.5-4.5 4.5 2.019 4.5 4.5-2.019 4.5-4.5 4.5zm0-8c-1.93 0-3.5 1.57-3.5 3.5s1.57 3.5 3.5 3.5 3.5-1.57 3.5-3.5-1.57-3.5-3.5-3.5z"></path><path d="m3 24c-1.654 0-3-1.346-3-3s1.346-3 3-3 3 1.346 3 3-1.346 3-3 3zm0-5c-1.103 0-2 .897-2 2s.897 2 2 2 2-.897 2-2-.897-2-2-2z"></path><path d="m6 4c-1.103 0-2-.897-2-2s.897-2 2-2 2 .897 2 2-.897 2-2 2zm0-3c-.552 0-1 .449-1 1s.448 1 1 1 1-.449 1-1-.448-1-1-1z"></path><path d="m20.5 23c-1.379 0-2.5-1.122-2.5-2.5s1.121-2.5 2.5-2.5 2.5 1.122 2.5 2.5-1.121 2.5-2.5 2.5zm0-4c-.827 0-1.5.673-1.5 1.5s.673 1.5 1.5 1.5 1.5-.673 1.5-1.5-.673-1.5-1.5-1.5z"></path><path d="m16.5 4c-.827 0-1.5-.673-1.5-1.5s.673-1.5 1.5-1.5 1.5.673 1.5 1.5-.673 1.5-1.5 1.5zm0-2c-.275 0-.5.224-.5.5s.225.5.5.5.5-.224.5-.5-.225-.5-.5-.5z"></path><path d="m22 13c-1.103 0-2-.897-2-2s.897-2 2-2 2 .897 2 2-.897 2-2 2zm0-3c-.552 0-1 .449-1 1s.448 1 1 1 1-.449 1-1-.448-1-1-1z"></path><path d="m1.5 13c-.827 0-1.5-.673-1.5-1.5s.673-1.5 1.5-1.5 1.5.673 1.5 1.5-.673 1.5-1.5 1.5zm0-2c-.275 0-.5.224-.5.5s.225.5.5.5.5-.224.5-.5-.225-.5-.5-.5z"></path><path d="m18.187 14.995h6.155v1h-6.155z" transform="matrix(.216 -.976 .976 .216 1.546 32.915)"></path><path d="m5.492 20.26h13.016v1h-13.016z" transform="matrix(.999 -.049 .049 .999 -.999 .611)"></path><path d="m-.365 6.475h8.021v1h-8.021z" transform="matrix(.428 -.904 .904 .428 -4.219 7.288)"></path><path d="m1.49 12.427h.999v6.237h-.999z" transform="matrix(.999 -.048 .048 .999 -.745 .114)"></path><path d="m18.615 2.727h1.001v7.636h-1.001z" transform="matrix(.839 -.544 .544 .839 -.488 11.44)"></path><path d="m10.995-1.749h1v8.019h-1z" transform="matrix(.047 -.999 .999 .047 8.692 13.635)"></path><path d="m16.71 14.551h1v5.317h-1z" transform="matrix(.707 -.707 .707 .707 -7.129 17.21)"></path><path d="m8.095 2.756h.999v6.857h-.999z" transform="matrix(.85 -.527 .527 .85 -1.969 5.452)"></path><path d="m4.08 16.815h6.35v1h-6.35z" transform="matrix(.82 -.572 .572 .82 -8.602 7.265)"></path><path d="m12.168 5.61h5.775v1h-5.775z" transform="matrix(.372 -.928 .928 .372 3.78 17.809)"></path><path d="m16.424 11.055h4.121v1h-4.121z" transform="matrix(.987 -.158 .158 .987 -1.595 3.07)"></path><path d="m5.005 8.838h1v6.054h-1z" transform="matrix(.091 -.996 .996 .091 -6.811 16.269)"></path></svg>