<svg xmlns="http://www.w3.org/2000/svg" id="Layer_5" height="512" viewBox="0 0 64 64" width="512"><g><path d="m32 24c-4.411 0-8 3.589-8 8s3.589 8 8 8 8-3.589 8-8-3.589-8-8-8zm0 14c-3.309 0-6-2.691-6-6s2.691-6 6-6 6 2.691 6 6-2.691 6-6 6z"></path><path d="m32 28c-2.206 0-4 1.794-4 4s1.794 4 4 4 4-1.794 4-4-1.794-4-4-4zm0 6c-1.103 0-2-.897-2-2s.897-2 2-2 2 .897 2 2-.897 2-2 2z"></path><path d="m61 15.184v-14.184h-28v10.184c-1.161.414-2 1.514-2 2.816v5h-2.708l-.644 1.826c-.158.062-.315.127-.471.196l-1.749-.836-5.242 5.244.836 1.748c-.069.157-.135.314-.196.471l-1.826.643v7.416l1.826.644c.062.157.127.314.196.471l-.084.177h-16.938c-1.654 0-3 1.346-3 3v16c0 1.654 1.346 3 3 3h4v2h-2v2h20v-2h-2v-2h4c1.654 0 3-1.346 3-3v-11h4.708l.644-1.826c.157-.062.314-.127.471-.196l1.749.836 5.242-5.242-.836-1.749c.069-.156.135-.313.196-.471l1.826-.644v-2.708h15c1.654 0 3-1.346 3-3v-12c0-1.302-.839-2.402-2-2.816zm-2-12.184v12h-13.382l-1.171-2.342c-.511-1.023-1.54-1.658-2.683-1.658h-6.764v-8zm-37 58h-12v-2h12zm6-4h-24c-.552 0-1-.448-1-1v-1h26v1c0 .552-.448 1-1 1zm1-4h-26v-13c0-.552.448-1 1-1h16.615l4.813 4.813 1.749-.836c.156.069.313.135.471.196l.644 1.827h.708zm14-18.708-1.393.491-.156.459c-.13.382-.291.767-.477 1.145l-.214.436.639 1.335-3.242 3.242-1.335-.639-.436.214c-.378.186-.763.347-1.145.477l-.459.156-.49 1.392h-4.584l-.491-1.393-.459-.156c-.382-.13-.767-.291-1.145-.477l-.436-.214-1.335.639-3.242-3.242.639-1.335-.214-.436c-.186-.378-.347-.763-.477-1.145l-.156-.459-1.392-.49v-4.584l1.393-.491.156-.458c.13-.38.29-.765.477-1.146l.214-.435-.639-1.334 3.242-3.242 1.335.638.436-.214c.375-.185.761-.345 1.146-.477l.458-.157.49-1.392h4.584l.491 1.392.458.157c.385.132.771.292 1.146.477l.436.214 1.335-.638 3.242 3.242-.639 1.334.214.435c.187.381.347.766.477 1.146l.156.458 1.392.491zm18-4.292c0 .551-.448 1-1 1h-15v-2.708l-1.826-.645c-.062-.157-.127-.314-.196-.471l.836-1.748-5.242-5.244-1.749.836c-.155-.069-.313-.134-.471-.196l-.644-1.824h-2.708v-5c0-.551.448-1 1-1h7.764c.381 0 .724.212.895.553l1.723 3.447h15.618c.552 0 1 .449 1 1z"></path><path d="m35 15h2v2h-2z"></path><path d="m39 15h2v2h-2z"></path><path d="m37 5h6v2h-6z"></path><path d="m45 5h12v2h-12z"></path><path d="m47 9h10v2h-10z"></path><path d="m55 50h-20.414l5.707 5.707 1.414-1.414-2.293-2.293h17.586v-9h-2z"></path><path d="m55 35h2v2h-2z"></path><path d="m55 39h2v2h-2z"></path><path d="m51 39v7h-11v2h13v-9z"></path><path d="m9 14h20.414l-5.707-5.707-1.414 1.414 2.293 2.293h-17.586v9h2z"></path><path d="m7 27h2v2h-2z"></path><path d="m7 23h2v2h-2z"></path><path d="m13 25v-7h11v-2h-13v9z"></path></g></svg>