<svg xmlns="http://www.w3.org/2000/svg" xmlns:xlink="http://www.w3.org/1999/xlink" id="Capa_1" x="0px" y="0px" viewBox="0 0 496 496" style="enable-background:new 0 0 496 496;" xml:space="preserve">
<g>
	<g>
		<g>
			<path d="M0,408c0,22.056,17.944,40,40,40h96v32h-32v16h288v-16h-32v-32h96c22.056,0,40-17.944,40-40v-24H0V408z M344,480H152v-32     h192V480z M16,400h464v8c0,13.232-10.768,24-24,24H40c-13.232,0-24-10.768-24-24V400z"></path>
			<path d="M456,80h-32v16h32c13.232,0,24,10.768,24,24v248h16V120C496,97.944,478.056,80,456,80z"></path>
			<path d="M16,120c0-13.232,10.768-24,24-24h32V80H40C17.944,80,0,97.944,0,120v248h16V120z"></path>
			<path d="M408,0H148.688L88,60.688V80h72V16h232v336H104V96H88v272h320V0z M144,64h-36.688L144,27.312V64z"></path>
			<polygon points="293.656,325.656 347.312,272 293.656,218.344 282.344,229.656 324.688,272 282.344,314.344    "></polygon>
			<polygon points="202.344,218.344 148.688,272 202.344,325.656 213.656,314.344 171.312,272 213.656,229.656    "></polygon>
			
				<rect x="186.893" y="263.966" transform="matrix(-0.1843 0.9829 -0.9829 -0.1843 565.7626 74.3939)" width="130.236" height="16"></rect>
			<polygon points="120,96 120,128 376,128 376,32 176,32 176,48 360,48 360,112 136,112 136,96    "></polygon>
			<rect x="120" y="144" width="16" height="16"></rect>
			<rect x="152" y="144" width="224" height="16"></rect>
			<rect x="360" y="176" width="16" height="16"></rect>
			<rect x="120" y="176" width="224" height="16"></rect>
		</g>
	</g>
</g>
<g>
</g>
<g>
</g>
<g>
</g>
<g>
</g>
<g>
</g>
<g>
</g>
<g>
</g>
<g>
</g>
<g>
</g>
<g>
</g>
<g>
</g>
<g>
</g>
<g>
</g>
<g>
</g>
<g>
</g>
</svg>