<svg xmlns="http://www.w3.org/2000/svg" xmlns:xlink="http://www.w3.org/1999/xlink" id="Layer_1" x="0px" y="0px" viewBox="0 0 1000 1000" style="enable-background:new 0 0 1000 1000;" xml:space="preserve">
<style type="text/css">
	.st0{opacity:0.5;}
	.st1{fill:url(#SVGID_1_);}
	.st2{fill:#FFFFFF;}
	.st3{fill:url(#SVGID_2_);}
	.st4{fill:url(#SVGID_3_);}
	.st5{fill:url(#SVGID_4_);}
	.st6{fill:url(#SVGID_5_);}
	.st7{fill:url(#SVGID_6_);}
	.st8{fill:url(#SVGID_7_);}
	.st9{opacity:0.5;fill:url(#SVGID_8_);enable-background:new    ;}
	.st10{fill:url(#SVGID_9_);}
	.st11{opacity:0.5;fill:url(#SVGID_10_);enable-background:new    ;}
	.st12{fill:url(#SVGID_11_);}
	.st13{fill:url(#SVGID_12_);}
	.st14{fill:url(#SVGID_13_);}
	.st15{opacity:0.5;fill:url(#SVGID_14_);enable-background:new    ;}
	.st16{opacity:0.5;fill:url(#SVGID_15_);enable-background:new    ;}
	.st17{fill:url(#SVGID_16_);}
</style>
<g class="st0">
	<g>
		
			<linearGradient id="SVGID_1_" gradientUnits="userSpaceOnUse" x1="57.449" y1="497.7076" x2="940.9554" y2="497.7076" gradientTransform="matrix(1 0 0 -1 0 1002)">
			<stop offset="0" style="stop-color:#764BA2"></stop>
			<stop offset="1" style="stop-color:#667EEA"></stop>
		</linearGradient>
		<path class="st1" d="M221.6,293.6c4.1-85.8,61.6-144.1,156-150.9c91.4-6.5,234.7,74.5,285.9,103.9c51.3,29.4,170.2,67.3,202,189.7    c28.3,108.9-21.6,185.5-149.5,232.3c-127.9,46.8-147.8,92.8-218.4,141.3c-89.4,61.5-181.8,79-255.5,20.5    c-64.2-50.9-78.7-129.9-62.8-210.8C201.7,505.4,216,413.2,221.6,293.6z"></path>
	</g>
</g>
<g>
	<rect x="369.6" y="635.3" class="st2" width="382.3" height="18.4"></rect>
	<ellipse class="st2" cx="266.9" cy="284.8" rx="3.8" ry="4"></ellipse>
	<path class="st2" d="M822.1,282.3c0-16.4-12.9-29.7-28.7-29.7H205.7c-15.8,0-28.7,13.3-28.7,29.7v35.9h645.1L822.1,282.3   L822.1,282.3z M222.8,302.2c-9.3,0-16.8-7.8-16.8-17.4c0-9.6,7.5-17.4,16.8-17.4c9.3,0,16.8,7.8,16.8,17.4   C239.6,294.4,232,302.2,222.8,302.2z M266.9,302.2c-9.3,0-16.8-7.8-16.8-17.4c0-9.6,7.5-17.4,16.8-17.4s16.8,7.8,16.8,17.4   C283.8,294.4,276.2,302.2,266.9,302.2z M311.1,302.2c-9.3,0-16.8-7.8-16.8-17.4c0-9.6,7.5-17.4,16.8-17.4c9.3,0,16.8,7.8,16.8,17.4   C328,294.4,320.4,302.2,311.1,302.2z"></path>
	<path class="st2" d="M177,726.3c0,16.4,12.9,29.7,28.7,29.7h587.7c15.8,0,28.7-13.3,28.7-29.7V331.6H177V726.3z M572.3,412.7   l20.1-3c0.7-0.1,1.3-0.5,1.6-1.2l9-18.9c0.8-1.6,3-1.6,3.7,0l9,18.9c0.3,0.6,0.9,1.1,1.6,1.2l20.1,3c1.7,0.3,2.4,2.4,1.2,3.7   L624,431.1c-0.5,0.5-0.7,1.2-0.6,1.9l3.4,20.8c0.3,1.8-1.5,3.1-3,2.3l-18-9.8c-0.6-0.3-1.3-0.3-1.9,0l-18,9.8   c-1.5,0.8-3.3-0.5-3-2.3l3.4-20.8c0.1-0.7-0.1-1.4-0.6-1.9l-14.6-14.7C570,415.1,570.6,413,572.3,412.7z M468.6,412.7l20.1-3   c0.7-0.1,1.3-0.5,1.6-1.2l9-18.9c0.8-1.6,3-1.6,3.7,0l9,18.9c0.3,0.6,0.9,1.1,1.6,1.2l20.1,3c1.7,0.3,2.4,2.4,1.2,3.7l-14.6,14.7   c-0.5,0.5-0.7,1.2-0.6,1.9l3.4,20.8c0.3,1.8-1.5,3.1-3,2.3l-18-9.8c-0.6-0.3-1.3-0.3-1.9,0l-18,9.8c-1.5,0.8-3.3-0.5-3-2.3   l3.4-20.8c0.1-0.7-0.1-1.4-0.6-1.9l-14.6-14.7C466.2,415.1,466.9,413,468.6,412.7z M364.8,412.7l20.1-3c0.7-0.1,1.3-0.5,1.6-1.2   l9-18.9c0.8-1.6,3-1.6,3.7,0l9,18.9c0.3,0.6,0.9,1.1,1.6,1.2l20.1,3c1.7,0.3,2.4,2.4,1.2,3.7l-14.6,14.7c-0.5,0.5-0.7,1.2-0.6,1.9   l3.4,20.8c0.3,1.8-1.5,3.1-3,2.3l-18-9.8c-0.6-0.3-1.3-0.3-1.9,0l-18,9.8c-1.5,0.8-3.3-0.5-3-2.3l3.4-20.8c0.1-0.7-0.1-1.4-0.6-1.9   l-14.6-14.7C362.5,415.1,363.1,413,364.8,412.7z M356.6,507.8c0-3.7,2.9-6.7,6.5-6.7h395.3c3.6,0,6.5,3,6.5,6.7v31.9   c0,3.7-2.9,6.7-6.5,6.7H363.1c-3.6,0-6.5-3-6.5-6.7V507.8z M764.8,578.5c0,3.7-2.9,6.7-6.5,6.7H639.2c-3.6,0-6.5-3-6.5-6.7   s2.9-6.7,6.5-6.7h119.1C761.9,571.8,764.8,574.8,764.8,578.5z M363.1,571.8h254.2c3.6,0,6.5,3,6.5,6.7s-2.9,6.7-6.5,6.7H363.1   c-3.6,0-6.5-3-6.5-6.7S359.5,571.8,363.1,571.8z M356.6,628.6c0-3.7,2.9-6.7,6.5-6.7h395.3c3.6,0,6.5,3,6.5,6.7v31.9   c0,3.7-2.9,6.7-6.5,6.7H363.1c-3.6,0-6.5-3-6.5-6.7V628.6z M363.1,692.5h226.8c3.6,0,6.5,3,6.5,6.7c0,3.7-2.9,6.7-6.5,6.7H363.1   c-3.6,0-6.5-3-6.5-6.7C356.6,695.5,359.5,692.5,363.1,692.5z M281.3,688.6c-4.5,4.6-9.9,6.9-16.2,6.9c-6.3,0-11.7-2.3-16.2-6.9   c-4.5-4.6-6.8-10.2-6.8-16.7v-2.3H255v2.3c0,2.9,1,5.4,2.9,7.4c2,2,4.4,3.1,7.2,3.1c2.8,0,5.2-1,7.1-3.1c1.9-2,2.9-4.5,2.9-7.4   c0-2.9-1-5.4-2.9-7.4c-2-2-4.4-3.1-7.1-3.1h-14.6l10.5-15.8h-14.9v-13.3h39.5l-11.8,17.4c3,0.8,6.1,3.3,9.3,7.5   c3.2,4.3,4.8,9.2,4.8,14.6C288,678.4,285.7,683.9,281.3,688.6z M248.8,390.9h19.6v62.9h-12.9v-49.6h-6.8L248.8,390.9L248.8,390.9z    M272.8,526.9c-1.5-1.5-3.2-2.2-5.3-2.2c-2.1,0-3.9,0.7-5.3,2.2c-1.4,1.5-2.1,4.1-2.1,7.9h-12.9v-2.3c0-5.8,2-10.8,6-14.9   c4-4.1,8.8-6.2,14.4-6.2c5.6,0,10.4,2.1,14.3,6.2c4,4.1,6,9.1,6,14.9c0,4.8-1.4,9.1-4.3,13l-0.3,0.3l-1,1.1l-5.4,6.3l-0.5,0.5   l-6.8,7.8h18.2v13.4h-47l20.9-24.3l11.8-13.6c1-1.3,1.5-2.9,1.5-4.6C275,530.3,274.3,528.4,272.8,526.9z"></path>
	<rect x="369.6" y="514.5" class="st2" width="382.3" height="18.4"></rect>
	<ellipse class="st2" cx="311.1" cy="284.8" rx="3.8" ry="4"></ellipse>
	<ellipse class="st2" cx="222.8" cy="284.8" rx="3.8" ry="4"></ellipse>
</g>
<g class="st0">
	
		<linearGradient id="SVGID_2_" gradientUnits="userSpaceOnUse" x1="78.8018" y1="482.9442" x2="897.0425" y2="482.9442" gradientTransform="matrix(1 0 0 -1 0 1002)">
		<stop offset="0" style="stop-color:#764BA2"></stop>
		<stop offset="1" style="stop-color:#667EEA"></stop>
	</linearGradient>
	<path class="st3" d="M364.4,267.8c39.2-68.6,112.4-91.6,195.4-56.4C640.1,245.5,728,373.8,759.3,420s126.1,132.9,92.5,242.7   c-40,131.1-95.7,142.7-223.8,125.9c-128.2-16.8-142.5,14.8-216.6,46.8c-66.1,28.5-193.1-26-253.4-118.7   c-42-64.6-44.3-127.4,34.5-200S309.7,363.4,364.4,267.8z"></path>
</g>
<g>
	<circle class="st2" cx="207.9" cy="310.7" r="3.7"></circle>
	<rect x="259.1" y="639.2" class="st2" width="64.2" height="56.8"></rect>
	<path class="st2" d="M164.3,308.4v33H779v-33c0-15.1-12.3-27.4-27.4-27.4h-560C176.5,281,164.3,293.3,164.3,308.4z M292.1,294.6   c8.8,0,16,7.2,16,16c0,8.8-7.2,16-16,16c-8.8,0-16-7.2-16-16C276,301.8,283.2,294.6,292.1,294.6z M250,294.6c8.8,0,16,7.2,16,16   c0,8.8-7.2,16-16,16c-8.8,0-16-7.2-16-16C233.9,301.8,241.1,294.6,250,294.6z M207.9,294.6c8.8,0,16,7.2,16,16c0,8.8-7.2,16-16,16   s-16-7.2-16-16C191.8,301.8,199,294.6,207.9,294.6z"></path>
	<circle class="st2" cx="292.1" cy="310.7" r="3.7"></circle>
	<path class="st2" d="M570,708.3h-76.6h-43.7h-76.6h-43.7h-76.6h-32c-3.4,0-6.2-2.8-6.2-6.2V395.7c0-3.4,2.8-6.2,6.2-6.2   s6.2,2.8,6.2,6.2V696h19.7v-63c0-3.4,2.8-6.2,6.2-6.2h76.6c3.4,0,6.2,2.8,6.2,6.2v63H367V555.6c0-3.4,2.8-6.2,6.2-6.2h76.6   c3.4,0,6.2,2.8,6.2,6.2V696h31.4V584c0-3.4,2.8-6.2,6.2-6.2H570c3.4,0,6.2,2.8,6.2,6.2V696h10.3c-0.5-5-0.8-10.1-0.8-15.3   c0-28.2,8-54.5,21.9-76.9V484.3c0-3.4,2.8-6.2,6.2-6.2h76.6c3.4,0,6.2,2.8,6.2,6.2v54.3c11.4-2.9,23.4-4.4,35.7-4.4   c3.4,0,6.2,2.8,6.2,6.2v134.1H779v-13.8h-20.5c-3.4,0-6.2-2.8-6.2-6.2V514.2c0-3.4,2.8-6.2,6.2-6.2c7,0,13.8,0.5,20.5,1.5V353.8   H164.3v362.9c0,15.1,12.3,27.4,27.3,27.4h408.6c-5.4-11.2-9.4-23.2-11.8-35.7L570,708.3L570,708.3z M291.2,538.2   c4.9,0,9.4,1.8,12.9,4.7l87.8-56.5c-0.5-1.7-0.8-3.4-0.8-5.3c0-11.3,9.2-20.4,20.4-20.4c10.7,0,19.4,8.3,20.2,18.8l82.6,19.5   c3.6-5.9,10-9.9,17.4-9.9c4.1,0,7.8,1.2,11,3.3l90.4-75c-1-2.4-1.5-4.9-1.5-7.6c0-11.3,9.2-20.4,20.4-20.4   c11.3,0,20.4,9.2,20.4,20.4s-9.2,20.4-20.4,20.4c-4.1,0-7.8-1.2-11-3.3l-90.4,75c1,2.4,1.5,4.9,1.5,7.6c0,11.3-9.2,20.4-20.4,20.4   c-10.7,0-19.4-8.3-20.2-18.8l-82.6-19.5c-3.6,5.9-10,9.9-17.4,9.9c-4.9,0-9.4-1.8-12.9-4.7l-87.8,56.5c0.5,1.7,0.8,3.4,0.8,5.3   c0,11.3-9.2,20.4-20.4,20.4c-11.2,0-20.4-9.2-20.4-20.4C270.7,547.4,279.9,538.2,291.2,538.2z"></path>
	<circle class="st2" cx="250" cy="310.7" r="3.7"></circle>
	<rect x="499.7" y="590.2" class="st2" width="64.2" height="105.7"></rect>
	<path class="st2" d="M684.2,542.3v-51.9H620v96.2C636.8,566.6,658.9,551.1,684.2,542.3z"></path>
	<rect x="379.4" y="561.8" class="st2" width="64.2" height="134.2"></rect>
	<circle class="st2" cx="291.2" cy="558.6" r="8"></circle>
	
		<ellipse transform="matrix(0.9985 -5.530062e-02 5.530062e-02 0.9985 -25.9824 23.4904)" class="st2" cx="411.5" cy="481.2" rx="8" ry="8"></ellipse>
	<circle class="st2" cx="531.8" cy="509.7" r="8"></circle>
	<circle class="st2" cx="652.1" cy="409.9" r="8"></circle>
	<path class="st2" d="M727.2,684.2c-0.1-0.1-0.2-0.2-0.2-0.4c-0.1-0.2-0.3-0.4-0.4-0.7c-0.1-0.1-0.1-0.3-0.2-0.4   c-0.1-0.2-0.2-0.5-0.2-0.7c0-0.1,0-0.3-0.1-0.4c0-0.3-0.1-0.5-0.1-0.8c0-0.1,0-0.1,0-0.2v-134c-71.1,3.2-128,62.1-128,134   c0,74,60.2,134.2,134.2,134.2c28.7,0,55.3-9.1,77.1-24.5l-82-105.9C727.3,684.4,727.3,684.3,727.2,684.2z"></path>
	<path class="st2" d="M819.2,782.8c27.4-23.4,45.4-57.6,47.1-95.9H744.9L819.2,782.8z"></path>
	<path class="st2" d="M764.7,520.5v127.8h127.8C889.3,579.2,833.7,523.6,764.7,520.5z"></path>
</g>
<g>
	
		<linearGradient id="SVGID_3_" gradientUnits="userSpaceOnUse" x1="78.8018" y1="889.847" x2="897.0425" y2="889.847" gradientTransform="matrix(1 0 0 -1 0 1002)">
		<stop offset="0" style="stop-color:#764BA2"></stop>
		<stop offset="1" style="stop-color:#667EEA"></stop>
	</linearGradient>
	<path class="st4" d="M525.2,94.1c-2.4-2.4-6.3-2.4-8.7,0l-9.3,9.3l-9.3-9.3c-2.4-2.4-6.3-2.4-8.7,0c-2.4,2.4-2.4,6.3,0,8.7l9.3,9.3   l-9.3,9.3c-2.4,2.4-2.4,6.3,0,8.7c1.2,1.2,2.8,1.8,4.4,1.8s3.2-0.6,4.4-1.8l9.3-9.3l9.3,9.3c1.2,1.2,2.8,1.8,4.4,1.8   c1.6,0,3.2-0.6,4.4-1.8c2.4-2.4,2.4-6.3,0-8.7l-9.3-9.3l9.3-9.3C527.6,100.5,527.6,96.5,525.2,94.1z"></path>
	<g>
		
			<linearGradient id="SVGID_4_" gradientUnits="userSpaceOnUse" x1="78.8018" y1="691.3327" x2="897.0425" y2="691.3327" gradientTransform="matrix(1 0 0 -1 0 1002)">
			<stop offset="0" style="stop-color:#764BA2"></stop>
			<stop offset="1" style="stop-color:#667EEA"></stop>
		</linearGradient>
		<path class="st5" d="M207.9,294.6c-8.8,0-16,7.2-16,16c0,8.8,7.2,16,16,16s16-7.2,16-16C223.9,301.8,216.7,294.6,207.9,294.6z     M207.9,314.3c-2,0-3.7-1.6-3.7-3.7c0-2,1.6-3.7,3.7-3.7s3.7,1.6,3.7,3.7C211.5,312.7,209.9,314.3,207.9,314.3z"></path>
		
			<linearGradient id="SVGID_5_" gradientUnits="userSpaceOnUse" x1="78.8018" y1="691.3327" x2="897.0425" y2="691.3327" gradientTransform="matrix(1 0 0 -1 0 1002)">
			<stop offset="0" style="stop-color:#764BA2"></stop>
			<stop offset="1" style="stop-color:#667EEA"></stop>
		</linearGradient>
		<path class="st6" d="M250,294.6c-8.8,0-16,7.2-16,16c0,8.8,7.2,16,16,16c8.8,0,16-7.2,16-16C266,301.8,258.8,294.6,250,294.6z     M250,314.3c-2,0-3.7-1.6-3.7-3.7c0-2,1.6-3.7,3.7-3.7s3.7,1.6,3.7,3.7C253.6,312.7,252,314.3,250,314.3z"></path>
		
			<linearGradient id="SVGID_6_" gradientUnits="userSpaceOnUse" x1="78.8018" y1="691.3327" x2="897.0425" y2="691.3327" gradientTransform="matrix(1 0 0 -1 0 1002)">
			<stop offset="0" style="stop-color:#764BA2"></stop>
			<stop offset="1" style="stop-color:#667EEA"></stop>
		</linearGradient>
		<path class="st7" d="M292.1,294.6c-8.8,0-16,7.2-16,16c0,8.8,7.2,16,16,16c8.8,0,16-7.2,16-16    C308.1,301.8,300.9,294.6,292.1,294.6z M292.1,314.3c-2,0-3.7-1.6-3.7-3.7c0-2,1.6-3.7,3.7-3.7c2,0,3.7,1.6,3.7,3.7    C295.7,312.7,294.1,314.3,292.1,314.3z"></path>
		
			<linearGradient id="SVGID_7_" gradientUnits="userSpaceOnUse" x1="78.8018" y1="517.7291" x2="897.0425" y2="517.7291" gradientTransform="matrix(1 0 0 -1 0 1002)">
			<stop offset="0" style="stop-color:#764BA2"></stop>
			<stop offset="1" style="stop-color:#667EEA"></stop>
		</linearGradient>
		<path class="st8" d="M652.1,389.5c-11.3,0-20.4,9.2-20.4,20.4c0,2.7,0.6,5.3,1.5,7.6l-90.4,75c-3.2-2-6.9-3.3-11-3.3    c-7.4,0-13.8,4-17.4,9.9l-82.6-19.5c-0.8-10.5-9.5-18.8-20.2-18.8c-11.3,0-20.4,9.2-20.4,20.4c0,1.8,0.3,3.6,0.8,5.3L304.1,543    c-3.5-2.9-8-4.7-12.9-4.7c-11.3,0-20.4,9.2-20.4,20.4c0,11.2,9.2,20.4,20.4,20.4s20.4-9.2,20.4-20.4c0-1.8-0.3-3.6-0.8-5.3    l87.8-56.5c3.5,2.9,8,4.7,12.9,4.7c7.4,0,13.8-4,17.4-9.9l82.6,19.5c0.8,10.5,9.5,18.8,20.2,18.8c11.3,0,20.4-9.2,20.4-20.4    c0-2.7-0.6-5.3-1.5-7.6l90.4-75c3.2,2,6.9,3.3,11,3.3c11.3,0,20.4-9.2,20.4-20.4S663.3,389.5,652.1,389.5z M291.2,566.7    c-4.4,0-8-3.6-8-8c0-4.4,3.6-8,8-8s8,3.6,8,8C299.2,563.1,295.6,566.7,291.2,566.7z M411.5,489.3c-4.4,0-8-3.6-8-8s3.6-8,8-8    c4.4,0,8,3.6,8,8S415.9,489.3,411.5,489.3z M531.8,517.7c-4.4,0-8-3.6-8-8s3.6-8,8-8s8,3.6,8,8S536.2,517.7,531.8,517.7z     M652.1,417.9c-4.4,0-8-3.6-8-8s3.6-8,8-8c4.4,0,8,3.6,8,8S656.5,417.9,652.1,417.9z"></path>
		
			<linearGradient id="SVGID_8_" gradientUnits="userSpaceOnUse" x1="78.8018" y1="95.7579" x2="897.0425" y2="95.7579" gradientTransform="matrix(1 0 0 -1 0 1002)">
			<stop offset="0" style="stop-color:#764BA2"></stop>
			<stop offset="1" style="stop-color:#667EEA"></stop>
		</linearGradient>
		<path class="st9" d="M563.3,882.8c-12.9,0-23.5,10.5-23.5,23.5c0,12.9,10.5,23.5,23.5,23.5c12.9,0,23.5-10.5,23.5-23.5    C586.7,893.3,576.2,882.8,563.3,882.8z M563.3,917.3c-6.1,0-11.1-5-11.1-11.1s5-11.1,11.1-11.1c6.1,0,11.1,5,11.1,11.1    S569.4,917.3,563.3,917.3z"></path>
		
			<linearGradient id="SVGID_9_" gradientUnits="userSpaceOnUse" x1="78.8018" y1="774.327" x2="897.0425" y2="774.327" gradientTransform="matrix(1 0 0 -1 0 1002)">
			<stop offset="0" style="stop-color:#764BA2"></stop>
			<stop offset="1" style="stop-color:#667EEA"></stop>
		</linearGradient>
		<path class="st10" d="M573,227.7c0,12.9,10.5,23.5,23.5,23.5s23.5-10.5,23.5-23.5s-10.5-23.5-23.5-23.5S573,214.7,573,227.7z     M607.6,227.7c0,6.1-5,11.1-11.1,11.1s-11.1-5-11.1-11.1s5-11.1,11.1-11.1S607.6,221.6,607.6,227.7z"></path>
		
			<linearGradient id="SVGID_10_" gradientUnits="userSpaceOnUse" x1="78.8018" y1="835.4436" x2="897.0425" y2="835.4436" gradientTransform="matrix(1 0 0 -1 0 1002)">
			<stop offset="0" style="stop-color:#764BA2"></stop>
			<stop offset="1" style="stop-color:#667EEA"></stop>
		</linearGradient>
		<path class="st11" d="M817.1,184.3c9.8,0,17.7-8,17.7-17.7c0-9.8-8-17.7-17.7-17.7s-17.7,8-17.7,17.7    C799.4,176.3,807.3,184.3,817.1,184.3z M817.1,161.2c3,0,5.4,2.4,5.4,5.4c0,3-2.4,5.4-5.4,5.4s-5.4-2.4-5.4-5.4    C811.7,163.6,814.1,161.2,817.1,161.2z"></path>
		
			<linearGradient id="SVGID_11_" gradientUnits="userSpaceOnUse" x1="78.8018" y1="332.8658" x2="897.0425" y2="332.8658" gradientTransform="matrix(1 0 0 -1 0 1002)">
			<stop offset="0" style="stop-color:#764BA2"></stop>
			<stop offset="1" style="stop-color:#667EEA"></stop>
		</linearGradient>
		<path class="st12" d="M85.3,651.4c-9.8,0-17.7,8-17.7,17.7c0,9.8,8,17.7,17.7,17.7s17.7-8,17.7-17.7    C103.1,659.4,95.1,651.4,85.3,651.4z M85.3,674.5c-3,0-5.4-2.4-5.4-5.4c0-3,2.4-5.4,5.4-5.4c3,0,5.4,2.4,5.4,5.4    C90.7,672.1,88.3,674.5,85.3,674.5z"></path>
		
			<linearGradient id="SVGID_12_" gradientUnits="userSpaceOnUse" x1="78.8018" y1="564.2212" x2="897.0425" y2="564.2212" gradientTransform="matrix(1 0 0 -1 0 1002)">
			<stop offset="0" style="stop-color:#764BA2"></stop>
			<stop offset="1" style="stop-color:#667EEA"></stop>
		</linearGradient>
		<path class="st13" d="M877,419.7c-2.4-2.4-6.3-2.4-8.7,0L859,429l-9.3-9.3c-2.4-2.4-6.3-2.4-8.7,0c-2.4,2.4-2.4,6.3,0,8.7l9.3,9.3    l-9.3,9.3c-2.4,2.4-2.4,6.3,0,8.7c1.2,1.2,2.8,1.8,4.4,1.8c1.6,0,3.2-0.6,4.4-1.8l9.3-9.3l9.3,9.3c1.2,1.2,2.8,1.8,4.4,1.8    c1.6,0,3.2-0.6,4.4-1.8c2.4-2.4,2.4-6.3,0-8.7l-9.3-9.3l9.3-9.3C879.4,426.1,879.4,422.2,877,419.7z"></path>
		
			<linearGradient id="SVGID_13_" gradientUnits="userSpaceOnUse" x1="78.8018" y1="168.7496" x2="897.0425" y2="168.7496" gradientTransform="matrix(1 0 0 -1 0 1002)">
			<stop offset="0" style="stop-color:#764BA2"></stop>
			<stop offset="1" style="stop-color:#667EEA"></stop>
		</linearGradient>
		<path class="st14" d="M304.7,815.2c-2.4-2.4-6.3-2.4-8.7,0l-9.3,9.3l-9.3-9.3c-2.4-2.4-6.3-2.4-8.7,0c-2.4,2.4-2.4,6.3,0,8.7    l9.3,9.3l-9.3,9.3c-2.4,2.4-2.4,6.3,0,8.7c1.2,1.2,2.8,1.8,4.4,1.8s3.2-0.6,4.4-1.8l9.3-9.3l9.3,9.3c1.2,1.2,2.8,1.8,4.4,1.8    s3.2-0.6,4.4-1.8c2.4-2.4,2.4-6.3,0-8.7l-9.3-9.3l9.3-9.3C307.2,821.5,307.2,817.6,304.7,815.2z"></path>
		
			<linearGradient id="SVGID_14_" gradientUnits="userSpaceOnUse" x1="78.8018" y1="801.4122" x2="897.0425" y2="801.4122" gradientTransform="matrix(1 0 0 -1 0 1002)">
			<stop offset="0" style="stop-color:#764BA2"></stop>
			<stop offset="1" style="stop-color:#667EEA"></stop>
		</linearGradient>
		<path class="st15" d="M241.7,186.4c-2.4-2.4-6.3-2.4-8.7,0l-5.4,5.4l-5.4-5.4c-2.4-2.4-6.3-2.4-8.7,0s-2.4,6.3,0,8.7l5.4,5.4    l-5.4,5.4c-2.4,2.4-2.4,6.3,0,8.7c1.2,1.2,2.8,1.8,4.4,1.8s3.2-0.6,4.4-1.8l5.4-5.4l5.4,5.4c1.2,1.2,2.8,1.8,4.4,1.8    s3.2-0.6,4.4-1.8c2.4-2.4,2.4-6.3,0-8.7l-5.4-5.4l5.4-5.4C244.1,192.8,244.1,188.8,241.7,186.4z"></path>
		
			<linearGradient id="SVGID_15_" gradientUnits="userSpaceOnUse" x1="78.8018" y1="132.104" x2="897.0425" y2="132.104" gradientTransform="matrix(1 0 0 -1 0 1002)">
			<stop offset="0" style="stop-color:#764BA2"></stop>
			<stop offset="1" style="stop-color:#667EEA"></stop>
		</linearGradient>
		<path class="st16" d="M842.8,855.7c-2.4-2.4-6.3-2.4-8.7,0l-5.4,5.4l-5.4-5.4c-2.4-2.4-6.3-2.4-8.7,0c-2.4,2.4-2.4,6.3,0,8.7    l5.4,5.4l-5.4,5.4c-2.4,2.4-2.4,6.3,0,8.7c1.2,1.2,2.8,1.8,4.4,1.8c1.6,0,3.2-0.6,4.4-1.8l5.4-5.4l5.4,5.4    c1.2,1.2,2.8,1.8,4.4,1.8c1.6,0,3.2-0.6,4.4-1.8c2.4-2.4,2.4-6.3,0-8.7l-5.4-5.4l5.4-5.4C845.2,862.1,845.2,858.1,842.8,855.7z"></path>
		
			<linearGradient id="SVGID_16_" gradientUnits="userSpaceOnUse" x1="78.8018" y1="454.074" x2="897.0425" y2="454.074" gradientTransform="matrix(1 0 0 -1 0 1002)">
			<stop offset="0" style="stop-color:#764BA2"></stop>
			<stop offset="1" style="stop-color:#667EEA"></stop>
		</linearGradient>
		<path class="st17" d="M791.3,511.7V347.6v-39.2c0-21.9-17.8-39.7-39.7-39.7h-560c-21.9,0-39.7,17.8-39.7,39.7v39.2v369.1    c0,21.9,17.8,39.7,39.7,39.7h415.3c25.7,42.4,72.3,70.8,125.4,70.8c33.6,0,64.6-11.4,89.4-30.5l0.3-0.2l0.5-0.4    c34.3-26.8,56.4-68.6,56.4-115.4c0-3.4-2.8-6.2-6.2-6.2h-81.3v-13.8h107.5c3.4,0,6.2-2.8,6.2-6.2C905,585,856.4,526.7,791.3,511.7    z M164.3,308.4c0-15.1,12.3-27.4,27.3-27.4h560c15.1,0,27.4,12.3,27.4,27.4v33H164.3V308.4z M732.3,814.8    c-74,0-134.2-60.2-134.2-134.2c0-71.9,56.9-130.7,128-134v134l0,0.2l0.1,0.8l0.1,0.4l0.2,0.7l0.2,0.4l0.4,0.7l0.2,0.4l0.1,0.2    l82,105.9C787.6,805.8,761,814.8,732.3,814.8z M684.2,542.3c-25.2,8.8-47.3,24.3-64.2,44.4v-96.2h64.2V542.3z M866.3,686.8    c-1.7,38.4-19.7,72.5-47.1,95.9l-74.3-95.9H866.3z M779,674.5h-40.5V540.4c0-3.4-2.8-6.2-6.2-6.2c-12.3,0-24.3,1.5-35.7,4.4v-54.3    c0-3.4-2.8-6.2-6.2-6.2h-76.6c-3.4,0-6.2,2.8-6.2,6.2v119.5c-13.9,22.4-21.9,48.7-21.9,76.9c0,5.2,0.3,10.3,0.8,15.3h-10.3V584    c0-3.4-2.8-6.2-6.2-6.2h-76.6c-3.4,0-6.2,2.8-6.2,6.2V696h-31.4V555.6c0-3.4-2.8-6.2-6.2-6.2h-76.6c-3.4,0-6.2,2.8-6.2,6.2V696    h-31.4v-63c0-3.4-2.8-6.2-6.2-6.2h-76.6c-3.4,0-6.2,2.8-6.2,6.2v63H227V395.7c0-3.4-2.8-6.2-6.2-6.2s-6.2,2.8-6.2,6.2v306.5    c0,3.4,2.8,6.2,6.2,6.2h32h76.6h43.7h76.6h43.7H570h18.3c2.4,12.5,6.4,24.5,11.8,35.7H191.6c-15.1,0-27.3-12.3-27.3-27.4V353.8    H779v155.7c-6.7-0.9-13.5-1.5-20.5-1.5c-3.4,0-6.2,2.8-6.2,6.2v140.3c0,3.4,2.8,6.2,6.2,6.2H779L779,674.5L779,674.5z M563.9,696    h-64.2V590.2h64.2V696z M443.6,696h-64.2V561.8h64.2V696z M323.2,696h-64.2v-56.8h64.2V696z M764.7,648.3V520.5    c69.1,3.1,124.7,58.7,127.8,127.8H764.7z"></path>
	</g>
</g>
</svg>