<svg xmlns="http://www.w3.org/2000/svg" xmlns:xlink="http://www.w3.org/1999/xlink" id="Layer_1" x="0px" y="0px" viewBox="0 0 1000 1000" style="enable-background:new 0 0 1000 1000;" xml:space="preserve">
<style type="text/css">
	.st0{opacity:0.5;}
	.st1{fill:url(#SVGID_1_);}
	.st2{fill:#FFFFFF;}
	.st3{fill:url(#SVGID_2_);}
	.st4{fill:url(#SVGID_3_);}
	.st5{fill:url(#SVGID_4_);}
	.st6{opacity:0.5;fill:url(#SVGID_5_);enable-background:new    ;}
	.st7{opacity:0.5;fill:url(#SVGID_6_);enable-background:new    ;}
	.st8{opacity:0.5;fill:url(#SVGID_7_);enable-background:new    ;}
	.st9{fill:url(#SVGID_8_);}
	.st10{opacity:0.5;fill:url(#SVGID_9_);enable-background:new    ;}
	.st11{fill:url(#SVGID_10_);}
	.st12{fill:url(#SVGID_11_);}
	.st13{fill:url(#SVGID_12_);}
	.st14{fill:url(#SVGID_13_);}
	.st15{fill:url(#SVGID_14_);}
	.st16{fill:url(#SVGID_15_);}
	.st17{fill:url(#SVGID_16_);}
	.st18{fill:url(#SVGID_17_);}
	.st19{fill:url(#SVGID_18_);}
	.st20{fill:url(#SVGID_19_);}
	.st21{fill:url(#SVGID_20_);}
	.st22{fill:url(#SVGID_21_);}
	.st23{fill:url(#SVGID_22_);}
	.st24{fill:url(#SVGID_23_);}
	.st25{fill:url(#SVGID_24_);}
</style>
<g class="st0">
	<g>
		
			<linearGradient id="SVGID_1_" gradientUnits="userSpaceOnUse" x1="57.449" y1="501.7076" x2="940.9554" y2="501.7076" gradientTransform="matrix(1 0 0 -1 0 1002)">
			<stop offset="0" style="stop-color:#764BA2"></stop>
			<stop offset="1" style="stop-color:#667EEA"></stop>
		</linearGradient>
		<path class="st1" d="M221.6,289.6c4.1-85.8,61.6-144.1,156-150.9c91.4-6.5,234.7,74.5,285.9,103.9c51.3,29.4,170.2,67.3,202,189.7    c28.3,108.9-21.6,185.5-149.5,232.3c-127.9,46.8-147.8,92.8-218.4,141.3c-89.4,61.5-181.8,79-255.5,20.5    c-64.2-50.9-78.7-129.9-62.8-210.8C201.7,501.4,216,409.2,221.6,289.6z"></path>
	</g>
</g>
<g>
	<rect x="369.6" y="631.3" class="st2" width="382.3" height="18.4"></rect>
	<ellipse class="st2" cx="266.9" cy="280.8" rx="3.8" ry="4"></ellipse>
	<path class="st2" d="M822.1,278.3c0-16.4-12.9-29.7-28.7-29.7H205.7c-15.8,0-28.7,13.3-28.7,29.7v35.9h645.1L822.1,278.3   L822.1,278.3z M222.8,298.2c-9.3,0-16.8-7.8-16.8-17.4c0-9.6,7.5-17.4,16.8-17.4c9.3,0,16.8,7.8,16.8,17.4   C239.6,290.4,232,298.2,222.8,298.2z M266.9,298.2c-9.3,0-16.8-7.8-16.8-17.4c0-9.6,7.5-17.4,16.8-17.4s16.8,7.8,16.8,17.4   C283.8,290.4,276.2,298.2,266.9,298.2z M311.1,298.2c-9.3,0-16.8-7.8-16.8-17.4c0-9.6,7.5-17.4,16.8-17.4c9.3,0,16.8,7.8,16.8,17.4   C328,290.4,320.4,298.2,311.1,298.2z"></path>
	<path class="st2" d="M177,722.3c0,16.4,12.9,29.7,28.7,29.7h587.7c15.8,0,28.7-13.3,28.7-29.7V327.6H177V722.3z M572.3,408.7   l20.1-3c0.7-0.1,1.3-0.5,1.6-1.2l9-18.9c0.8-1.6,3-1.6,3.7,0l9,18.9c0.3,0.6,0.9,1.1,1.6,1.2l20.1,3c1.7,0.3,2.4,2.4,1.2,3.7   L624,427.1c-0.5,0.5-0.7,1.2-0.6,1.9l3.4,20.8c0.3,1.8-1.5,3.1-3,2.3l-18-9.8c-0.6-0.3-1.3-0.3-1.9,0l-18,9.8   c-1.5,0.8-3.3-0.5-3-2.3l3.4-20.8c0.1-0.7-0.1-1.4-0.6-1.9l-14.6-14.7C570,411.1,570.6,409,572.3,408.7z M468.6,408.7l20.1-3   c0.7-0.1,1.3-0.5,1.6-1.2l9-18.9c0.8-1.6,3-1.6,3.7,0l9,18.9c0.3,0.6,0.9,1.1,1.6,1.2l20.1,3c1.7,0.3,2.4,2.4,1.2,3.7l-14.6,14.7   c-0.5,0.5-0.7,1.2-0.6,1.9l3.4,20.8c0.3,1.8-1.5,3.1-3,2.3l-18-9.8c-0.6-0.3-1.3-0.3-1.9,0l-18,9.8c-1.5,0.8-3.3-0.5-3-2.3   l3.4-20.8c0.1-0.7-0.1-1.4-0.6-1.9l-14.6-14.7C466.2,411.1,466.9,409,468.6,408.7z M364.8,408.7l20.1-3c0.7-0.1,1.3-0.5,1.6-1.2   l9-18.9c0.8-1.6,3-1.6,3.7,0l9,18.9c0.3,0.6,0.9,1.1,1.6,1.2l20.1,3c1.7,0.3,2.4,2.4,1.2,3.7l-14.6,14.7c-0.5,0.5-0.7,1.2-0.6,1.9   l3.4,20.8c0.3,1.8-1.5,3.1-3,2.3l-18-9.8c-0.6-0.3-1.3-0.3-1.9,0l-18,9.8c-1.5,0.8-3.3-0.5-3-2.3l3.4-20.8c0.1-0.7-0.1-1.4-0.6-1.9   l-14.6-14.7C362.5,411.1,363.1,409,364.8,408.7z M356.6,503.8c0-3.7,2.9-6.7,6.5-6.7h395.3c3.6,0,6.5,3,6.5,6.7v31.9   c0,3.7-2.9,6.7-6.5,6.7H363.1c-3.6,0-6.5-3-6.5-6.7V503.8z M764.8,574.5c0,3.7-2.9,6.7-6.5,6.7H639.2c-3.6,0-6.5-3-6.5-6.7   s2.9-6.7,6.5-6.7h119.1C761.9,567.8,764.8,570.8,764.8,574.5z M363.1,567.8h254.2c3.6,0,6.5,3,6.5,6.7s-2.9,6.7-6.5,6.7H363.1   c-3.6,0-6.5-3-6.5-6.7S359.5,567.8,363.1,567.8z M356.6,624.6c0-3.7,2.9-6.7,6.5-6.7h395.3c3.6,0,6.5,3,6.5,6.7v31.9   c0,3.7-2.9,6.7-6.5,6.7H363.1c-3.6,0-6.5-3-6.5-6.7V624.6z M363.1,688.5h226.8c3.6,0,6.5,3,6.5,6.7c0,3.7-2.9,6.7-6.5,6.7H363.1   c-3.6,0-6.5-3-6.5-6.7C356.6,691.5,359.5,688.5,363.1,688.5z M281.3,684.6c-4.5,4.6-9.9,6.9-16.2,6.9c-6.3,0-11.7-2.3-16.2-6.9   c-4.5-4.6-6.8-10.2-6.8-16.7v-2.3H255v2.3c0,2.9,1,5.4,2.9,7.4c2,2,4.4,3.1,7.2,3.1c2.8,0,5.2-1,7.1-3.1c1.9-2,2.9-4.5,2.9-7.4   c0-2.9-1-5.4-2.9-7.4c-2-2-4.4-3.1-7.1-3.1h-14.6l10.5-15.8h-14.9v-13.3h39.5l-11.8,17.4c3,0.8,6.1,3.3,9.3,7.5   c3.2,4.3,4.8,9.2,4.8,14.6C288,674.4,285.7,679.9,281.3,684.6z M248.8,386.9h19.6v62.9h-12.9v-49.6h-6.8L248.8,386.9L248.8,386.9z    M272.8,522.9c-1.5-1.5-3.2-2.2-5.3-2.2c-2.1,0-3.9,0.7-5.3,2.2c-1.4,1.5-2.1,4.1-2.1,7.9h-12.9v-2.3c0-5.8,2-10.8,6-14.9   c4-4.1,8.8-6.2,14.4-6.2c5.6,0,10.4,2.1,14.3,6.2c4,4.1,6,9.1,6,14.9c0,4.8-1.4,9.1-4.3,13l-0.3,0.3l-1,1.1l-5.4,6.3l-0.5,0.5   l-6.8,7.8h18.2v13.4h-47l20.9-24.3l11.8-13.6c1-1.3,1.5-2.9,1.5-4.6C275,526.3,274.3,524.4,272.8,522.9z"></path>
	<rect x="369.6" y="510.5" class="st2" width="382.3" height="18.4"></rect>
	<ellipse class="st2" cx="311.1" cy="280.8" rx="3.8" ry="4"></ellipse>
	<ellipse class="st2" cx="222.8" cy="280.8" rx="3.8" ry="4"></ellipse>
</g>
<g>
	
		<linearGradient id="SVGID_2_" gradientUnits="userSpaceOnUse" x1="57.449" y1="147.9468" x2="940.9554" y2="147.9468" gradientTransform="matrix(1 0 0 -1 0 1002)">
		<stop offset="0" style="stop-color:#764BA2"></stop>
		<stop offset="1" style="stop-color:#667EEA"></stop>
	</linearGradient>
	<path class="st3" d="M653.5,828.5c-13.6,0-24.6,11.5-24.6,25.5c0,14.1,11.1,25.5,24.6,25.5s24.6-11.5,24.6-25.5   C678.2,840,667.1,828.5,653.5,828.5z M653.5,866.1c-6.4,0-11.6-5.4-11.6-12.1s5.2-12.1,11.6-12.1s11.6,5.4,11.6,12.1   S659.9,866.1,653.5,866.1z"></path>
	
		<linearGradient id="SVGID_3_" gradientUnits="userSpaceOnUse" x1="57.449" y1="821.8338" x2="940.9554" y2="821.8338" gradientTransform="matrix(1 0 0 -1 0 1002)">
		<stop offset="0" style="stop-color:#764BA2"></stop>
		<stop offset="1" style="stop-color:#667EEA"></stop>
	</linearGradient>
	<path class="st4" d="M457.5,180.2c0-10.6-8.4-19.3-18.6-19.3s-18.6,8.7-18.6,19.3c0,10.6,8.4,19.3,18.6,19.3   S457.5,190.8,457.5,180.2z M433.3,180.2c0-3.2,2.5-5.8,5.6-5.8s5.6,2.6,5.6,5.8c0,3.2-2.5,5.8-5.6,5.8S433.3,183.4,433.3,180.2z"></path>
	
		<linearGradient id="SVGID_4_" gradientUnits="userSpaceOnUse" x1="57.449" y1="809.2762" x2="940.9554" y2="809.2762" gradientTransform="matrix(1 0 0 -1 0 1002)">
		<stop offset="0" style="stop-color:#764BA2"></stop>
		<stop offset="1" style="stop-color:#667EEA"></stop>
	</linearGradient>
	<path class="st5" d="M869.9,173.4c-10.3,0-18.6,8.7-18.6,19.3c0,10.6,8.4,19.3,18.6,19.3s18.6-8.7,18.6-19.3   C888.6,182.1,880.2,173.4,869.9,173.4z M869.9,198.6c-3.1,0-5.6-2.6-5.6-5.8c0-3.2,2.5-5.8,5.6-5.8c3.1,0,5.6,2.6,5.6,5.8   C875.6,195.9,873,198.6,869.9,198.6z"></path>
	
		<linearGradient id="SVGID_5_" gradientUnits="userSpaceOnUse" x1="57.449" y1="402.4047" x2="940.9554" y2="402.4047" gradientTransform="matrix(1 0 0 -1 0 1002)">
		<stop offset="0" style="stop-color:#764BA2"></stop>
		<stop offset="1" style="stop-color:#667EEA"></stop>
	</linearGradient>
	<path class="st6" d="M78.8,618.9c10.3,0,18.6-8.7,18.6-19.3s-8.4-19.3-18.6-19.3s-18.6,8.7-18.6,19.3S68.5,618.9,78.8,618.9z    M78.8,593.8c3.1,0,5.6,2.6,5.6,5.8s-2.5,5.8-5.6,5.8c-3.1,0-5.6-2.6-5.6-5.8S75.7,593.8,78.8,593.8z"></path>
	
		<linearGradient id="SVGID_6_" gradientUnits="userSpaceOnUse" x1="57.449" y1="935.4183" x2="940.9554" y2="935.4183" gradientTransform="matrix(1 0 0 -1 0 1002)">
		<stop offset="0" style="stop-color:#764BA2"></stop>
		<stop offset="1" style="stop-color:#667EEA"></stop>
	</linearGradient>
	<path class="st7" d="M762.9,47c-2.5-2.6-6.6-2.6-9.2,0L744,57.1L734.3,47c-2.5-2.6-6.6-2.6-9.2,0c-2.5,2.6-2.5,6.9,0,9.5l9.7,10.1   l-9.7,10.1c-2.5,2.6-2.5,6.9,0,9.5c1.3,1.3,2.9,2,4.6,2c1.7,0,3.3-0.7,4.6-2l9.7-10.1l9.7,10.1c1.3,1.3,2.9,2,4.6,2   c1.7,0,3.3-0.7,4.6-2c2.5-2.6,2.5-6.9,0-9.5l-9.7-10.1l9.7-10.1C765.5,53.9,765.5,49.6,762.9,47z"></path>
	
		<linearGradient id="SVGID_7_" gradientUnits="userSpaceOnUse" x1="57.449" y1="853.0169" x2="940.9554" y2="853.0169" gradientTransform="matrix(1 0 0 -1 0 1002)">
		<stop offset="0" style="stop-color:#764BA2"></stop>
		<stop offset="1" style="stop-color:#667EEA"></stop>
	</linearGradient>
	<path class="st8" d="M127.9,164.4c1.3,1.3,2.9,2,4.6,2s3.3-0.7,4.6-2l5.7-5.9l5.7,5.9c1.3,1.3,2.9,2,4.6,2s3.3-0.7,4.6-2   c2.5-2.6,2.5-6.9,0-9.5l-5.7-5.9l5.7-5.9c2.5-2.6,2.5-6.9,0-9.5c-2.5-2.6-6.6-2.6-9.2,0l-5.7,5.9l-5.7-5.9c-2.5-2.6-6.6-2.6-9.2,0   c-2.5,2.6-2.5,6.9,0,9.5l5.7,5.9l-5.7,5.9C125.3,157.5,125.3,161.8,127.9,164.4z"></path>
	
		<linearGradient id="SVGID_8_" gradientUnits="userSpaceOnUse" x1="57.449" y1="63.7925" x2="940.9554" y2="63.7925" gradientTransform="matrix(1 0 0 -1 0 1002)">
		<stop offset="0" style="stop-color:#764BA2"></stop>
		<stop offset="1" style="stop-color:#667EEA"></stop>
	</linearGradient>
	<path class="st9" d="M266,922.8c-2.5-2.6-6.6-2.6-9.2,0l-5.7,5.9l-5.7-5.9c-2.5-2.6-6.6-2.6-9.2,0c-2.5,2.6-2.5,6.9,0,9.5l5.7,5.9   l-5.7,5.9c-2.5,2.6-2.5,6.9,0,9.5c1.3,1.3,2.9,2,4.6,2c1.7,0,3.3-0.7,4.6-2l5.7-5.9l5.7,5.9c1.3,1.3,2.9,2,4.6,2   c1.7,0,3.3-0.7,4.6-2c2.5-2.6,2.5-6.9,0-9.5l-5.7-5.9l5.7-5.9C268.5,929.7,268.5,925.4,266,922.8z"></path>
	
		<linearGradient id="SVGID_9_" gradientUnits="userSpaceOnUse" x1="57.449" y1="179.5673" x2="940.9554" y2="179.5673" gradientTransform="matrix(1 0 0 -1 0 1002)">
		<stop offset="0" style="stop-color:#764BA2"></stop>
		<stop offset="1" style="stop-color:#667EEA"></stop>
	</linearGradient>
	<path class="st10" d="M937.1,807c-2.5-2.6-6.6-2.6-9.2,0l-5.7,5.9l-5.7-5.9c-2.5-2.6-6.6-2.6-9.2,0c-2.5,2.6-2.5,6.9,0,9.5l5.7,5.9   l-5.7,5.9c-2.5,2.6-2.5,6.9,0,9.5c1.3,1.3,2.9,2,4.6,2c1.7,0,3.3-0.7,4.6-2l5.7-5.9l5.7,5.9c1.3,1.3,2.9,2,4.6,2   c1.7,0,3.3-0.7,4.6-2c2.5-2.6,2.5-6.9,0-9.5l-5.7-5.9l5.7-5.9C939.6,813.9,939.6,809.6,937.1,807z"></path>
	
		<linearGradient id="SVGID_10_" gradientUnits="userSpaceOnUse" x1="57.449" y1="501.7058" x2="940.9554" y2="501.7058" gradientTransform="matrix(1 0 0 -1 0 1002)">
		<stop offset="0" style="stop-color:#764BA2"></stop>
		<stop offset="1" style="stop-color:#667EEA"></stop>
	</linearGradient>
	<path class="st11" d="M164,278.3v42.6v401.4c0,23.8,18.7,43.2,41.7,43.2h587.7c23,0,41.7-19.4,41.7-43.2V320.9v-42.6   c0-23.8-18.7-43.2-41.7-43.2H205.7C182.7,235.1,164,254.5,164,278.3z M822.1,722.3c0,16.4-12.9,29.7-28.7,29.7H205.7   c-15.8,0-28.7-13.3-28.7-29.7V327.6h645.1L822.1,722.3L822.1,722.3z M822.1,278.3v35.9H177v-35.9c0-16.4,12.9-29.7,28.7-29.7h587.7   C809.2,248.6,822.1,261.9,822.1,278.3z"></path>
	
		<linearGradient id="SVGID_11_" gradientUnits="userSpaceOnUse" x1="57.449" y1="721.2272" x2="940.9554" y2="721.2272" gradientTransform="matrix(1 0 0 -1 0 1002)">
		<stop offset="0" style="stop-color:#764BA2"></stop>
		<stop offset="1" style="stop-color:#667EEA"></stop>
	</linearGradient>
	<path class="st12" d="M222.8,298.2c9.3,0,16.8-7.8,16.8-17.4c0-9.6-7.5-17.4-16.8-17.4c-9.3,0-16.8,7.8-16.8,17.4   C205.9,290.4,213.5,298.2,222.8,298.2z M222.8,276.8c2.1,0,3.8,1.8,3.8,4c0,2.2-1.7,4-3.8,4c-2.1,0-3.8-1.8-3.8-4   C218.9,278.6,220.6,276.8,222.8,276.8z"></path>
	
		<linearGradient id="SVGID_12_" gradientUnits="userSpaceOnUse" x1="57.449" y1="721.2272" x2="940.9554" y2="721.2272" gradientTransform="matrix(1 0 0 -1 0 1002)">
		<stop offset="0" style="stop-color:#764BA2"></stop>
		<stop offset="1" style="stop-color:#667EEA"></stop>
	</linearGradient>
	<path class="st13" d="M266.9,298.2c9.3,0,16.8-7.8,16.8-17.4c0-9.6-7.5-17.4-16.8-17.4s-16.8,7.8-16.8,17.4   C250.1,290.4,257.7,298.2,266.9,298.2z M266.9,276.8c2.1,0,3.8,1.8,3.8,4c0,2.2-1.7,4-3.8,4s-3.8-1.8-3.8-4   C263.1,278.6,264.8,276.8,266.9,276.8z"></path>
	
		<linearGradient id="SVGID_13_" gradientUnits="userSpaceOnUse" x1="57.449" y1="721.2272" x2="940.9554" y2="721.2272" gradientTransform="matrix(1 0 0 -1 0 1002)">
		<stop offset="0" style="stop-color:#764BA2"></stop>
		<stop offset="1" style="stop-color:#667EEA"></stop>
	</linearGradient>
	<path class="st14" d="M311.1,298.2c9.3,0,16.8-7.8,16.8-17.4c0-9.6-7.5-17.4-16.8-17.4c-9.3,0-16.8,7.8-16.8,17.4   C294.3,290.4,301.9,298.2,311.1,298.2z M311.1,276.8c2.1,0,3.8,1.8,3.8,4c0,2.2-1.7,4-3.8,4c-2.1,0-3.8-1.8-3.8-4   C307.3,278.6,309,276.8,311.1,276.8z"></path>
	
		<linearGradient id="SVGID_14_" gradientUnits="userSpaceOnUse" x1="57.449" y1="583.6589" x2="940.9554" y2="583.6589" gradientTransform="matrix(1 0 0 -1 0 1002)">
		<stop offset="0" style="stop-color:#764BA2"></stop>
		<stop offset="1" style="stop-color:#667EEA"></stop>
	</linearGradient>
	<polygon class="st15" points="255.6,449.8 268.4,449.8 268.4,386.9 248.8,386.9 248.8,400.2 255.6,400.2  "></polygon>
	
		<linearGradient id="SVGID_15_" gradientUnits="userSpaceOnUse" x1="57.449" y1="462.8692" x2="940.9554" y2="462.8692" gradientTransform="matrix(1 0 0 -1 0 1002)">
		<stop offset="0" style="stop-color:#764BA2"></stop>
		<stop offset="1" style="stop-color:#667EEA"></stop>
	</linearGradient>
	<path class="st16" d="M261.8,546.7l-20.9,24.3h47v-13.4h-18.2l6.8-7.8l0.5-0.5l5.4-6.3l1-1.1l0.3-0.3c2.9-3.9,4.3-8.3,4.3-13   c0-5.8-2-10.8-6-14.9c-4-4.1-8.8-6.2-14.3-6.2c-5.6,0-10.4,2.1-14.4,6.2c-4,4.1-6,9.1-6,14.9v2.3H260c0-3.7,0.7-6.3,2.1-7.9   c1.5-1.5,3.2-2.2,5.3-2.2c2.1,0,3.8,0.7,5.3,2.2c1.5,1.5,2.2,3.4,2.2,5.5c0,1.7-0.5,3.3-1.5,4.6L261.8,546.7z"></path>
	
		<linearGradient id="SVGID_16_" gradientUnits="userSpaceOnUse" x1="57.449" y1="342.0905" x2="940.9554" y2="342.0905" gradientTransform="matrix(1 0 0 -1 0 1002)">
		<stop offset="0" style="stop-color:#764BA2"></stop>
		<stop offset="1" style="stop-color:#667EEA"></stop>
	</linearGradient>
	<path class="st17" d="M273.8,645.7l11.8-17.4h-39.5v13.3H261l-10.5,15.8h14.6c2.8,0,5.2,1,7.1,3.1c1.9,2,2.9,4.5,2.9,7.4   c0,2.9-1,5.4-2.9,7.4c-2,2-4.4,3.1-7.1,3.1c-2.8,0-5.2-1-7.2-3.1c-1.9-2-2.9-4.5-2.9-7.4v-2.3h-12.8v2.3c0,6.6,2.3,12.1,6.8,16.7   c4.5,4.6,9.9,6.9,16.2,6.9c6.3,0,11.7-2.3,16.2-6.9c4.5-4.6,6.7-10.2,6.7-16.7c0-5.4-1.6-10.3-4.8-14.6   C279.9,649,276.8,646.5,273.8,645.7z"></path>
	
		<linearGradient id="SVGID_17_" gradientUnits="userSpaceOnUse" x1="57.449" y1="583.6625" x2="940.9554" y2="583.6625" gradientTransform="matrix(1 0 0 -1 0 1002)">
		<stop offset="0" style="stop-color:#764BA2"></stop>
		<stop offset="1" style="stop-color:#667EEA"></stop>
	</linearGradient>
	<path class="st18" d="M378.3,427.1c0.5,0.5,0.7,1.2,0.6,1.9l-3.4,20.8c-0.3,1.8,1.5,3.1,3,2.3l18-9.8c0.6-0.3,1.3-0.3,1.9,0l18,9.8   c1.5,0.8,3.3-0.5,3-2.3l-3.4-20.8c-0.1-0.7,0.1-1.4,0.6-1.9l14.6-14.7c1.2-1.2,0.6-3.4-1.2-3.7l-20.1-3c-0.7-0.1-1.3-0.5-1.6-1.2   l-9-18.9c-0.8-1.6-3-1.6-3.7,0l-9,18.9c-0.3,0.6-0.9,1.1-1.6,1.2l-20.1,3c-1.7,0.3-2.4,2.4-1.2,3.7L378.3,427.1z"></path>
	
		<linearGradient id="SVGID_18_" gradientUnits="userSpaceOnUse" x1="57.449" y1="583.6625" x2="940.9554" y2="583.6625" gradientTransform="matrix(1 0 0 -1 0 1002)">
		<stop offset="0" style="stop-color:#764BA2"></stop>
		<stop offset="1" style="stop-color:#667EEA"></stop>
	</linearGradient>
	<path class="st19" d="M482,427.1c0.5,0.5,0.7,1.2,0.6,1.9l-3.4,20.8c-0.3,1.8,1.5,3.1,3,2.3l18-9.8c0.6-0.3,1.3-0.3,1.9,0l18,9.8   c1.5,0.8,3.3-0.5,3-2.3l-3.4-20.8c-0.1-0.7,0.1-1.4,0.6-1.9l14.6-14.7c1.2-1.2,0.6-3.4-1.2-3.7l-20.1-3c-0.7-0.1-1.3-0.5-1.6-1.2   l-9-18.9c-0.8-1.6-3-1.6-3.7,0l-9,18.9c-0.3,0.6-0.9,1.1-1.6,1.2l-20.1,3c-1.7,0.3-2.4,2.4-1.2,3.7L482,427.1z"></path>
	
		<linearGradient id="SVGID_19_" gradientUnits="userSpaceOnUse" x1="57.449" y1="583.6625" x2="940.9554" y2="583.6625" gradientTransform="matrix(1 0 0 -1 0 1002)">
		<stop offset="0" style="stop-color:#764BA2"></stop>
		<stop offset="1" style="stop-color:#667EEA"></stop>
	</linearGradient>
	<path class="st20" d="M585.8,427.1c0.5,0.5,0.7,1.2,0.6,1.9l-3.4,20.8c-0.3,1.8,1.5,3.1,3,2.3l18-9.8c0.6-0.3,1.3-0.3,1.9,0l18,9.8   c1.5,0.8,3.3-0.5,3-2.3l-3.4-20.8c-0.1-0.7,0.1-1.4,0.6-1.9l14.6-14.7c1.2-1.2,0.6-3.4-1.2-3.7l-20.1-3c-0.7-0.1-1.3-0.5-1.6-1.2   l-9-18.9c-0.8-1.6-3-1.6-3.7,0l-9,18.9c-0.3,0.6-0.9,1.1-1.6,1.2l-20.1,3c-1.7,0.3-2.4,2.4-1.2,3.7L585.8,427.1z"></path>
	
		<linearGradient id="SVGID_20_" gradientUnits="userSpaceOnUse" x1="57.449" y1="482.2719" x2="940.9554" y2="482.2719" gradientTransform="matrix(1 0 0 -1 0 1002)">
		<stop offset="0" style="stop-color:#764BA2"></stop>
		<stop offset="1" style="stop-color:#667EEA"></stop>
	</linearGradient>
	<path class="st21" d="M363.1,542.4h395.3c3.6,0,6.5-3,6.5-6.7v-31.9c0-3.7-2.9-6.7-6.5-6.7H363.1c-3.6,0-6.5,3-6.5,6.7v31.9   C356.6,539.4,359.5,542.4,363.1,542.4z M369.6,510.5h382.3v18.4H369.6V510.5z"></path>
	
		<linearGradient id="SVGID_21_" gradientUnits="userSpaceOnUse" x1="57.449" y1="427.5199" x2="940.9554" y2="427.5199" gradientTransform="matrix(1 0 0 -1 0 1002)">
		<stop offset="0" style="stop-color:#764BA2"></stop>
		<stop offset="1" style="stop-color:#667EEA"></stop>
	</linearGradient>
	<path class="st22" d="M363.1,581.2h254.2c3.6,0,6.5-3,6.5-6.7s-2.9-6.7-6.5-6.7H363.1c-3.6,0-6.5,3-6.5,6.7   S359.5,581.2,363.1,581.2z"></path>
	
		<linearGradient id="SVGID_22_" gradientUnits="userSpaceOnUse" x1="57.449" y1="427.5199" x2="940.9554" y2="427.5199" gradientTransform="matrix(1 0 0 -1 0 1002)">
		<stop offset="0" style="stop-color:#764BA2"></stop>
		<stop offset="1" style="stop-color:#667EEA"></stop>
	</linearGradient>
	<path class="st23" d="M758.3,567.8H639.2c-3.6,0-6.5,3-6.5,6.7s2.9,6.7,6.5,6.7h119.1c3.6,0,6.5-3,6.5-6.7S761.9,567.8,758.3,567.8   z"></path>
	
		<linearGradient id="SVGID_23_" gradientUnits="userSpaceOnUse" x1="57.449" y1="361.4865" x2="940.9554" y2="361.4865" gradientTransform="matrix(1 0 0 -1 0 1002)">
		<stop offset="0" style="stop-color:#764BA2"></stop>
		<stop offset="1" style="stop-color:#667EEA"></stop>
	</linearGradient>
	<path class="st24" d="M363.1,663.2h395.3c3.6,0,6.5-3,6.5-6.7v-31.9c0-3.7-2.9-6.7-6.5-6.7H363.1c-3.6,0-6.5,3-6.5,6.7v31.9   C356.6,660.2,359.5,663.2,363.1,663.2z M369.6,631.3h382.3v18.4H369.6V631.3z"></path>
	
		<linearGradient id="SVGID_24_" gradientUnits="userSpaceOnUse" x1="57.449" y1="306.7348" x2="940.9554" y2="306.7348" gradientTransform="matrix(1 0 0 -1 0 1002)">
		<stop offset="0" style="stop-color:#764BA2"></stop>
		<stop offset="1" style="stop-color:#667EEA"></stop>
	</linearGradient>
	<path class="st25" d="M363.1,702h226.8c3.6,0,6.5-3,6.5-6.7c0-3.7-2.9-6.7-6.5-6.7H363.1c-3.6,0-6.5,3-6.5,6.7   C356.6,699,359.5,702,363.1,702z"></path>
</g>
</svg>