<svg xmlns="http://www.w3.org/2000/svg" xmlns:xlink="http://www.w3.org/1999/xlink" id="Layer_1" x="0px" y="0px" viewBox="0 0 1000 1000" style="enable-background:new 0 0 1000 1000;" xml:space="preserve">
<style type="text/css">
	.st0{opacity:0.5;}
	.st1{fill:url(#SVGID_1_);}
	.st2{fill:#FFFFFF;}
	.st3{fill:url(#SVGID_2_);}
	.st4{fill:url(#SVGID_3_);}
	.st5{opacity:0.5;fill:url(#SVGID_4_);enable-background:new    ;}
	.st6{opacity:0.5;fill:url(#SVGID_5_);enable-background:new    ;}
	.st7{fill:url(#SVGID_6_);}
	.st8{fill:url(#SVGID_7_);}
	.st9{fill:url(#SVGID_8_);}
	.st10{opacity:0.5;fill:url(#SVGID_9_);enable-background:new    ;}
	.st11{opacity:0.5;fill:url(#SVGID_10_);enable-background:new    ;}
	.st12{fill:url(#SVGID_11_);}
	.st13{fill:url(#SVGID_12_);}
	.st14{fill:url(#SVGID_13_);}
	.st15{fill:url(#SVGID_14_);}
	.st16{fill:url(#SVGID_15_);}
	.st17{fill:url(#SVGID_16_);}
	.st18{fill:url(#SVGID_17_);}
	.st19{fill:url(#SVGID_18_);}
	.st20{fill:url(#SVGID_19_);}
</style>
<g class="st0">
	
		<linearGradient id="SVGID_1_" gradientUnits="userSpaceOnUse" x1="41.0381" y1="461.1891" x2="955.3188" y2="461.1891" gradientTransform="matrix(1 0 0 -1 0 1002)">
		<stop offset="0" style="stop-color:#764BA2"></stop>
		<stop offset="1" style="stop-color:#667EEA"></stop>
	</linearGradient>
	<path class="st1" d="M270.6,324.2c11.4-83.7,74.7-135.8,171.1-134.2c93.4,1.6,231.9,93.5,281.5,126.9   c49.6,33.3,181.9,122.3,189,203.5c12.9,146-92.7,187.1-171.5,214.5c-130.5,45.5-180.4,71.2-226.9,107.8   c-60.5,47.6-170.7,76.6-267.9,9.2c-31.2-21.6-95-108.5-46-212.1C249,536.3,254.7,440.9,270.6,324.2z"></path>
</g>
<g>
	<rect x="210" y="474.9" class="st2" width="417.9" height="18.1"></rect>
	<circle class="st2" cx="283.8" cy="298.5" r="3.9"></circle>
	<path class="st2" d="M147.2,296.1v35.3h657.3v-35.3c0-16.1-13.1-29.3-29.3-29.3H176.4C160.3,266.8,147.2,279.9,147.2,296.1z    M283.8,281.4c9.5,0,17.1,7.7,17.1,17.1c0,9.5-7.7,17.1-17.1,17.1c-9.5,0-17.1-7.7-17.1-17.1C266.7,289.1,274.4,281.4,283.8,281.4z    M238.8,281.4c9.5,0,17.1,7.7,17.1,17.1c0,9.5-7.7,17.1-17.1,17.1c-9.5,0-17.1-7.7-17.1-17.1C221.7,289.1,229.4,281.4,238.8,281.4z    M193.8,281.4c9.5,0,17.1,7.7,17.1,17.1c0,9.5-7.7,17.1-17.1,17.1c-9.5,0-17.1-7.7-17.1-17.1S184.3,281.4,193.8,281.4z"></path>
	<rect x="210" y="544.2" class="st2" width="417.9" height="18.1"></rect>
	<path class="st2" d="M551.1,646c18.1-18.1,42.2-28.1,67.9-28.1c14.6,0,28.7,3.4,41.5,9.5l19.5-19.5c-17.1-35.7-11-79.9,18.6-109.4   l49.2-49.2c15.9-15.9,36-24.9,56.7-27.3v-77.3H147.2v388.1c0,16.1,13.1,29.3,29.3,29.3h297.4c0.3-24.2,9.6-48.3,28-66.7L551.1,646z    M196.8,399.1c0-3.7,3-6.6,6.6-6.6h357c3.7,0,6.6,3,6.6,6.6v31.4c0,3.7-3,6.6-6.6,6.6h-357c-3.7,0-6.6-3-6.6-6.6V399.1z    M196.8,468.3c0-3.7,3-6.6,6.6-6.6h431.1c3.7,0,6.6,3,6.6,6.6v31.4c0,3.7-3,6.6-6.6,6.6H203.4c-3.7,0-6.6-3-6.6-6.6V468.3z    M196.8,606.9c0-3.7,3-6.6,6.6-6.6h185.3c3.7,0,6.6,3,6.6,6.6v31.4c0,3.7-3,6.6-6.6,6.6H203.4c-3.7,0-6.6-3-6.6-6.6V606.9z    M458.5,707.5c0,3.7-3,6.6-6.6,6.6H203.4c-3.7,0-6.6-3-6.6-6.6v-31.4c0-3.7,3-6.6,6.6-6.6h248.5c3.7,0,6.6,3,6.6,6.6V707.5z    M203.4,575.6c-3.7,0-6.6-3-6.6-6.6v-31.4c0-3.7,3-6.6,6.6-6.6h431.1c3.7,0,6.6,3,6.6,6.6V569c0,3.7-3,6.6-6.6,6.6H203.4z"></path>
	<circle class="st2" cx="238.8" cy="298.5" r="3.9"></circle>
	<circle class="st2" cx="193.8" cy="298.5" r="3.9"></circle>
	<path class="st2" d="M784.1,593.7c1.9-1.2,3.7-2.7,5.3-4.3l15.1-15.1v-87.6c-4.3,1.6-8.3,4-11.8,7.5l-49.2,49.2   c-1.6,1.6-3.1,3.4-4.3,5.3l1.1-1.1c6-6,14-9.3,22.5-9.3c8.5,0,16.5,3.3,22.5,9.3s9.3,14,9.3,22.5c0,8.5-3.3,16.5-9.3,22.4   L784.1,593.7z"></path>
	<path class="st2" d="M724.9,652.9l-19.5,19.5c13.6,28.4,12.5,62.1-3.5,89.6h73.3c16.1,0,29.3-13.1,29.3-29.3v-78.2   c-11.9,5.1-24.7,7.9-38.1,7.9C751.8,662.4,737.7,659,724.9,652.9z"></path>
	<rect x="210" y="682.8" class="st2" width="235.3" height="18.1"></rect>
	<path class="st2" d="M601.4,686.6c-1.9,1.2-3.7,2.7-5.3,4.3l-49.2,49.2c-6,6-9.2,13.9-9.4,21.8h79.5l25.1-25.1   c1.6-1.6,3.1-3.4,4.3-5.3l-1.1,1.1c-6,6-14,9.3-22.5,9.3c-8.5,0-16.5-3.3-22.5-9.3c-6-6-9.3-14-9.3-22.5c0-8.5,3.3-16.5,9.3-22.4   L601.4,686.6z"></path>
	<rect x="210" y="405.7" class="st2" width="343.7" height="18.1"></rect>
	<rect x="210" y="613.5" class="st2" width="172.1" height="18.1"></rect>
	<path class="st2" d="M815.7,434.5c-21.2,0-42.4,8.1-58.5,24.2l-49.2,49.2c-24.3,24.3-30.3,60.1-18,90.1l30.8-30.8   c0-0.3,0-0.5,0-0.8c0-12.2,4.7-23.7,13.4-32.3l49.2-49.2c17.8-17.8,46.8-17.8,64.7,0s17.8,46.8,0,64.7l-49.2,49.2   c-8.6,8.6-20.1,13.4-32.3,13.4c-0.3,0-0.5,0-0.8,0l-30.8,30.8c9.9,4.1,20.6,6.2,31.6,6.2c22.1,0,42.9-8.6,58.5-24.2l49.2-49.2   c32.3-32.3,32.3-84.8,0-117C858.1,442.5,836.9,434.5,815.7,434.5z"></path>
	<path class="st2" d="M664.7,713.1c0,0.3,0,0.5,0,0.8c0,12.2-4.7,23.7-13.4,32.3l-49.2,49.2c-8.9,8.9-20.6,13.4-32.3,13.4   s-23.4-4.5-32.3-13.4c-17.8-17.8-17.8-46.8,0-64.7l49.2-49.2c8.6-8.6,20.1-13.4,32.3-13.4c0.3,0,0.5,0,0.8,0l30.8-30.8   c-9.9-4.1-20.6-6.2-31.6-6.2c-22.1,0-42.9,8.6-58.5,24.2l-49.2,49.2c-32.3,32.3-32.3,84.8,0,117c15.6,15.6,36.4,24.2,58.5,24.2   s42.9-8.6,58.5-24.2l49.2-49.2c24.3-24.3,30.3-60.1,18-90.1L664.7,713.1z"></path>
	<path class="st2" d="M604.2,710.2c0,4.9,1.9,9.6,5.4,13.1c3.5,3.5,8.1,5.4,13.1,5.4c4.9,0,9.6-1.9,13.1-5.4l140.1-140.1   c3.5-3.5,5.4-8.1,5.4-13.1c0-4.9-1.9-9.6-5.4-13.1c-3.5-3.5-8.2-5.4-13.1-5.4c-4.9,0-9.6,1.9-13.1,5.4L609.6,697.1   C606.1,700.6,604.2,705.2,604.2,710.2z"></path>
</g>
<g>
	
		<linearGradient id="SVGID_2_" gradientUnits="userSpaceOnUse" x1="41.0381" y1="842.1514" x2="955.3188" y2="842.1514" gradientTransform="matrix(1 0 0 -1 0 1002)">
		<stop offset="0" style="stop-color:#764BA2"></stop>
		<stop offset="1" style="stop-color:#667EEA"></stop>
	</linearGradient>
	<path class="st3" d="M164.8,184.9c13.8,0,25.1-11.3,25.1-25.1c0-13.8-11.3-25.1-25.1-25.1c-13.8,0-25.1,11.3-25.1,25.1   C139.7,173.7,150.9,184.9,164.8,184.9z M164.8,148c6.5,0,11.9,5.3,11.9,11.9s-5.3,11.9-11.9,11.9s-11.9-5.3-11.9-11.9   S158.2,148,164.8,148z"></path>
	
		<linearGradient id="SVGID_3_" gradientUnits="userSpaceOnUse" x1="41.0381" y1="784.7531" x2="955.3188" y2="784.7531" gradientTransform="matrix(1 0 0 -1 0 1002)">
		<stop offset="0" style="stop-color:#764BA2"></stop>
		<stop offset="1" style="stop-color:#667EEA"></stop>
	</linearGradient>
	<path class="st4" d="M521.6,217.2c0,10.5,8.5,19,19,19s19-8.5,19-19c0-10.5-8.5-19-19-19S521.6,206.8,521.6,217.2z M546.3,217.2   c0,3.2-2.6,5.7-5.7,5.7s-5.7-2.6-5.7-5.7s2.6-5.7,5.7-5.7S546.3,214.1,546.3,217.2z"></path>
	
		<linearGradient id="SVGID_4_" gradientUnits="userSpaceOnUse" x1="41.0381" y1="149.5561" x2="955.3188" y2="149.5561" gradientTransform="matrix(1 0 0 -1 0 1002)">
		<stop offset="0" style="stop-color:#764BA2"></stop>
		<stop offset="1" style="stop-color:#667EEA"></stop>
	</linearGradient>
	<path class="st5" d="M752.9,833.5c-10.5,0-19,8.5-19,19c0,10.5,8.5,19,19,19s19-8.5,19-19C771.9,842,763.4,833.5,752.9,833.5z    M752.9,858.2c-3.2,0-5.7-2.6-5.7-5.7c0-3.2,2.6-5.7,5.7-5.7s5.7,2.6,5.7,5.7C758.7,855.6,756.1,858.2,752.9,858.2z"></path>
	
		<linearGradient id="SVGID_5_" gradientUnits="userSpaceOnUse" x1="41.0381" y1="60.4598" x2="955.3188" y2="60.4598" gradientTransform="matrix(1 0 0 -1 0 1002)">
		<stop offset="0" style="stop-color:#764BA2"></stop>
		<stop offset="1" style="stop-color:#667EEA"></stop>
	</linearGradient>
	<path class="st6" d="M113.3,922.6c-10.5,0-19,8.5-19,19c0,10.5,8.5,19,19,19s19-8.5,19-19C132.2,931.1,123.7,922.6,113.3,922.6z    M113.3,947.3c-3.2,0-5.7-2.6-5.7-5.7c0-3.2,2.6-5.7,5.7-5.7s5.7,2.6,5.7,5.7C119,944.7,116.4,947.3,113.3,947.3z"></path>
	
		<linearGradient id="SVGID_6_" gradientUnits="userSpaceOnUse" x1="41.0381" y1="119.5675" x2="955.3188" y2="119.5675" gradientTransform="matrix(1 0 0 -1 0 1002)">
		<stop offset="0" style="stop-color:#764BA2"></stop>
		<stop offset="1" style="stop-color:#667EEA"></stop>
	</linearGradient>
	<path class="st7" d="M937.4,863.1c-2.6-2.6-6.8-2.6-9.4,0l-9.9,9.9l-9.9-9.9c-2.6-2.6-6.8-2.6-9.4,0c-2.6,2.6-2.6,6.8,0,9.4   l9.9,9.9l-9.9,9.9c-2.6,2.6-2.6,6.8,0,9.4c1.3,1.3,3,1.9,4.7,1.9c1.7,0,3.4-0.6,4.7-1.9l9.9-9.9l9.9,9.9c1.3,1.3,3,1.9,4.7,1.9   s3.4-0.6,4.7-1.9c2.6-2.6,2.6-6.8,0-9.4l-9.9-9.9l9.9-9.9C939.9,869.9,939.9,865.7,937.4,863.1z"></path>
	
		<linearGradient id="SVGID_7_" gradientUnits="userSpaceOnUse" x1="41.0381" y1="176.5226" x2="955.3188" y2="176.5226" gradientTransform="matrix(1 0 0 -1 0 1002)">
		<stop offset="0" style="stop-color:#764BA2"></stop>
		<stop offset="1" style="stop-color:#667EEA"></stop>
	</linearGradient>
	<path class="st8" d="M361.5,806.2c-2.6-2.6-6.8-2.6-9.4,0l-9.9,9.9l-9.9-9.9c-2.6-2.6-6.8-2.6-9.4,0s-2.6,6.8,0,9.4l9.9,9.9   l-9.9,9.9c-2.6,2.6-2.6,6.8,0,9.4c1.3,1.3,3,1.9,4.7,1.9s3.4-0.6,4.7-1.9l9.9-9.9l9.9,9.9c1.3,1.3,3,1.9,4.7,1.9s3.4-0.6,4.7-1.9   c2.6-2.6,2.6-6.8,0-9.4l-9.9-9.9l9.9-9.9C364.1,813,364.1,808.8,361.5,806.2z"></path>
	
		<linearGradient id="SVGID_8_" gradientUnits="userSpaceOnUse" x1="41.0381" y1="915.7739" x2="955.3188" y2="915.7739" gradientTransform="matrix(1 0 0 -1 0 1002)">
		<stop offset="0" style="stop-color:#764BA2"></stop>
		<stop offset="1" style="stop-color:#667EEA"></stop>
	</linearGradient>
	<path class="st9" d="M742.2,66.9c-2.6-2.6-6.8-2.6-9.4,0l-9.9,9.9l-9.9-9.9c-2.6-2.6-6.8-2.6-9.4,0c-2.6,2.6-2.6,6.8,0,9.4l9.9,9.9   l-9.9,9.9c-2.6,2.6-2.6,6.8,0,9.4c1.3,1.3,3,1.9,4.7,1.9s3.4-0.6,4.7-1.9l9.9-9.9l9.9,9.9c1.3,1.3,3,1.9,4.7,1.9s3.4-0.6,4.7-1.9   c2.6-2.6,2.6-6.8,0-9.4l-9.9-9.9l9.9-9.9C744.8,73.7,744.8,69.5,742.2,66.9z"></path>
	
		<linearGradient id="SVGID_9_" gradientUnits="userSpaceOnUse" x1="41.0381" y1="592.4697" x2="955.3188" y2="592.4697" gradientTransform="matrix(1 0 0 -1 0 1002)">
		<stop offset="0" style="stop-color:#764BA2"></stop>
		<stop offset="1" style="stop-color:#667EEA"></stop>
	</linearGradient>
	<path class="st10" d="M76,394.4c-2.6-2.6-6.8-2.6-9.4,0l-5.8,5.8l-5.8-5.8c-2.6-2.6-6.8-2.6-9.4,0c-2.6,2.6-2.6,6.8,0,9.4l5.8,5.8   l-5.8,5.8c-2.6,2.6-2.6,6.8,0,9.4c1.3,1.3,3,1.9,4.7,1.9c1.7,0,3.4-0.6,4.7-1.9l5.8-5.8l5.8,5.8c1.3,1.3,3,1.9,4.7,1.9   c1.7,0,3.4-0.6,4.7-1.9c2.6-2.6,2.6-6.8,0-9.4l-5.8-5.8l5.8-5.8C78.6,401.2,78.6,397,76,394.4z"></path>
	
		<linearGradient id="SVGID_10_" gradientUnits="userSpaceOnUse" x1="41.0381" y1="831.6827" x2="955.3188" y2="831.6827" gradientTransform="matrix(1 0 0 -1 0 1002)">
		<stop offset="0" style="stop-color:#764BA2"></stop>
		<stop offset="1" style="stop-color:#667EEA"></stop>
	</linearGradient>
	<path class="st11" d="M896.6,155.2c-2.6-2.6-6.8-2.6-9.4,0l-5.8,5.8l-5.8-5.8c-2.6-2.6-6.8-2.6-9.4,0c-2.6,2.6-2.6,6.8,0,9.4   l5.8,5.8l-5.8,5.8c-2.6,2.6-2.6,6.8,0,9.4c1.3,1.3,3,1.9,4.7,1.9s3.4-0.6,4.7-1.9l5.8-5.8l5.8,5.8c1.3,1.3,3,1.9,4.7,1.9   s3.4-0.6,4.7-1.9c2.6-2.6,2.6-6.8,0-9.4l-5.8-5.8l5.8-5.8C899.1,161.9,899.1,157.8,896.6,155.2z"></path>
	
		<linearGradient id="SVGID_11_" gradientUnits="userSpaceOnUse" x1="41.0381" y1="703.4891" x2="955.3188" y2="703.4891" gradientTransform="matrix(1 0 0 -1 0 1002)">
		<stop offset="0" style="stop-color:#764BA2"></stop>
		<stop offset="1" style="stop-color:#667EEA"></stop>
	</linearGradient>
	<path class="st12" d="M193.8,281.4c-9.5,0-17.1,7.7-17.1,17.1c0,9.5,7.7,17.1,17.1,17.1c9.5,0,17.1-7.7,17.1-17.1   C210.9,289.1,203.2,281.4,193.8,281.4z M193.8,302.4c-2.2,0-3.9-1.8-3.9-3.9s1.8-3.9,3.9-3.9c2.2,0,3.9,1.8,3.9,3.9   C197.7,300.7,195.9,302.4,193.8,302.4z"></path>
	
		<linearGradient id="SVGID_12_" gradientUnits="userSpaceOnUse" x1="41.0381" y1="703.4891" x2="955.3188" y2="703.4891" gradientTransform="matrix(1 0 0 -1 0 1002)">
		<stop offset="0" style="stop-color:#764BA2"></stop>
		<stop offset="1" style="stop-color:#667EEA"></stop>
	</linearGradient>
	<path class="st13" d="M238.8,281.4c-9.5,0-17.1,7.7-17.1,17.1c0,9.5,7.7,17.1,17.1,17.1c9.5,0,17.1-7.7,17.1-17.1   S248.3,281.4,238.8,281.4z M238.8,302.4c-2.2,0-3.9-1.8-3.9-3.9s1.8-3.9,3.9-3.9c2.2,0,3.9,1.8,3.9,3.9   C242.7,300.7,241,302.4,238.8,302.4z"></path>
	
		<linearGradient id="SVGID_13_" gradientUnits="userSpaceOnUse" x1="41.0381" y1="703.4891" x2="955.3188" y2="703.4891" gradientTransform="matrix(1 0 0 -1 0 1002)">
		<stop offset="0" style="stop-color:#764BA2"></stop>
		<stop offset="1" style="stop-color:#667EEA"></stop>
	</linearGradient>
	<path class="st14" d="M283.8,281.4c-9.5,0-17.1,7.7-17.1,17.1c0,9.5,7.7,17.1,17.1,17.1c9.5,0,17.1-7.7,17.1-17.1   C301,289.1,293.3,281.4,283.8,281.4z M283.8,302.4c-2.2,0-3.9-1.8-3.9-3.9s1.8-3.9,3.9-3.9c2.2,0,3.9,1.8,3.9,3.9   C287.8,300.7,286,302.4,283.8,302.4z"></path>
	
		<linearGradient id="SVGID_14_" gradientUnits="userSpaceOnUse" x1="41.0381" y1="587.2563" x2="955.3188" y2="587.2563" gradientTransform="matrix(1 0 0 -1 0 1002)">
		<stop offset="0" style="stop-color:#764BA2"></stop>
		<stop offset="1" style="stop-color:#667EEA"></stop>
	</linearGradient>
	<path class="st15" d="M203.4,437h357c3.7,0,6.6-3,6.6-6.6v-31.4c0-3.7-3-6.6-6.6-6.6h-357c-3.7,0-6.6,3-6.6,6.6v31.4   C196.8,434.1,199.7,437,203.4,437z M210,405.7h343.7v18.1H210V405.7z"></path>
	
		<linearGradient id="SVGID_15_" gradientUnits="userSpaceOnUse" x1="41.0381" y1="517.9803" x2="955.3188" y2="517.9803" gradientTransform="matrix(1 0 0 -1 0 1002)">
		<stop offset="0" style="stop-color:#764BA2"></stop>
		<stop offset="1" style="stop-color:#667EEA"></stop>
	</linearGradient>
	<path class="st16" d="M203.4,506.3h431.1c3.7,0,6.6-3,6.6-6.6v-31.4c0-3.7-3-6.6-6.6-6.6H203.4c-3.7,0-6.6,3-6.6,6.6v31.4   C196.8,503.4,199.7,506.3,203.4,506.3z M210,474.9h417.9v18.1H210V474.9z"></path>
	
		<linearGradient id="SVGID_16_" gradientUnits="userSpaceOnUse" x1="41.0381" y1="448.7087" x2="955.3188" y2="448.7087" gradientTransform="matrix(1 0 0 -1 0 1002)">
		<stop offset="0" style="stop-color:#764BA2"></stop>
		<stop offset="1" style="stop-color:#667EEA"></stop>
	</linearGradient>
	<path class="st17" d="M641.1,569v-31.4c0-3.7-3-6.6-6.6-6.6H203.4c-3.7,0-6.6,3-6.6,6.6V569c0,3.7,3,6.6,6.6,6.6h431.1   C638.1,575.6,641.1,572.6,641.1,569z M627.8,562.4H210v-18.1h417.9V562.4z"></path>
	
		<linearGradient id="SVGID_17_" gradientUnits="userSpaceOnUse" x1="41.0381" y1="379.437" x2="955.3188" y2="379.437" gradientTransform="matrix(1 0 0 -1 0 1002)">
		<stop offset="0" style="stop-color:#764BA2"></stop>
		<stop offset="1" style="stop-color:#667EEA"></stop>
	</linearGradient>
	<path class="st18" d="M203.4,644.9h185.3c3.7,0,6.6-3,6.6-6.6v-31.4c0-3.7-3-6.6-6.6-6.6H203.4c-3.7,0-6.6,3-6.6,6.6v31.4   C196.8,641.9,199.7,644.9,203.4,644.9z M210,613.5h172.1v18.1H210V613.5z"></path>
	
		<linearGradient id="SVGID_18_" gradientUnits="userSpaceOnUse" x1="41.0381" y1="310.1654" x2="955.3188" y2="310.1654" gradientTransform="matrix(1 0 0 -1 0 1002)">
		<stop offset="0" style="stop-color:#764BA2"></stop>
		<stop offset="1" style="stop-color:#667EEA"></stop>
	</linearGradient>
	<path class="st19" d="M451.9,669.5H203.4c-3.7,0-6.6,3-6.6,6.6v31.4c0,3.7,3,6.6,6.6,6.6h248.5c3.7,0,6.6-3,6.6-6.6v-31.4   C458.5,672.5,455.5,669.5,451.9,669.5z M445.3,700.9H210v-18.1h235.3V700.9z"></path>
	
		<linearGradient id="SVGID_19_" gradientUnits="userSpaceOnUse" x1="41.0381" y1="445.6754" x2="955.3188" y2="445.6754" gradientTransform="matrix(1 0 0 -1 0 1002)">
		<stop offset="0" style="stop-color:#764BA2"></stop>
		<stop offset="1" style="stop-color:#667EEA"></stop>
	</linearGradient>
	<path class="st20" d="M883.6,449.3c-18.2-18.2-41.9-27.5-65.8-28V338v-41.9c0-23.4-19.1-42.5-42.5-42.5H176.4   c-23.4,0-42.5,19.1-42.5,42.5V338v394.7c0,23.4,19.1,42.5,42.5,42.5h298.2c2.6,20.4,11.6,40.1,27.2,55.8   c18.1,18.1,42.2,28.1,67.9,28.1s49.8-10,67.9-28.1l49.2-49.2c2.1-2.1,4-4.3,5.9-6.5h82.5c23.4,0,42.5-19.1,42.5-42.5v-85.2   c5.9-3.8,11.5-8.1,16.6-13.2l49.2-49.2C921,547.6,921,486.7,883.6,449.3z M147.2,296.1c0-16.1,13.1-29.3,29.3-29.3h598.8   c16.1,0,29.3,13.1,29.3,29.3v35.3H147.2V296.1z M473.9,762H176.4c-16.1,0-29.3-13.1-29.3-29.3V344.6h657.3V422   c-20.7,2.4-40.8,11.5-56.7,27.3l-49.2,49.2c-29.6,29.5-35.7,73.7-18.6,109.4l-19.5,19.5c-12.8-6.2-26.9-9.5-41.5-9.5   c-25.7,0-49.8,10-67.9,28.1l-49.2,49.2C483.5,713.7,474.2,737.8,473.9,762z M817.8,484.8c7.6,0.5,15.1,3.6,20.9,9.4   c12.7,12.7,12.7,33.3,0,45.9l-20.9,20.9V484.8z M804.5,574.3l-15.1,15.1c-1.6,1.6-3.4,3.1-5.3,4.3l1.1-1.1c6-6,9.3-14,9.3-22.4   c0-8.5-3.3-16.5-9.3-22.5c-6-6-14-9.3-22.5-9.3c-8.5,0-16.5,3.3-22.5,9.3l-1.1,1.1c1.2-1.9,2.7-3.7,4.3-5.3l49.2-49.2   c3.4-3.4,7.5-5.9,11.8-7.5L804.5,574.3L804.5,574.3z M749.7,557c3.5-3.5,8.1-5.4,13.1-5.4c4.9,0,9.6,1.9,13.1,5.4   c3.5,3.5,5.4,8.1,5.4,13.1c0,4.9-1.9,9.6-5.4,13.1L635.8,723.3c-3.5,3.5-8.2,5.4-13.1,5.4c-4.9,0-9.6-1.9-13.1-5.4   c-3.5-3.5-5.4-8.1-5.4-13.1c0-4.9,1.9-9.6,5.4-13.1L749.7,557z M537.4,762c0.3-7.9,3.4-15.8,9.4-21.8l49.2-49.2   c1.6-1.6,3.4-3.1,5.3-4.3l-1.1,1.1c-6,6-9.3,14-9.3,22.4c0,8.5,3.3,16.5,9.3,22.5c6,6,14,9.3,22.5,9.3c8.5,0,16.5-3.3,22.5-9.3   l1.1-1.1c-1.2,1.9-2.7,3.7-4.3,5.3L616.9,762H537.4z M603.6,775.2l-10.9,10.9c-12.7,12.7-33.3,12.7-45.9,0   c-3.2-3.2-5.6-6.9-7.2-10.9H603.6z M677.5,772.4l-49.2,49.2c-15.6,15.6-36.4,24.2-58.5,24.2c-22.1,0-42.9-8.6-58.5-24.2   c-32.3-32.3-32.3-84.8,0-117l49.2-49.2c15.6-15.6,36.4-24.2,58.5-24.2c11,0,21.7,2.1,31.6,6.2l-30.8,30.8l-0.8,0   c-12.2,0-23.7,4.7-32.3,13.4l-49.2,49.2c-17.8,17.8-17.8,46.8,0,64.7c8.9,8.9,20.6,13.4,32.3,13.4c11.7,0,23.4-4.5,32.3-13.4   l49.2-49.2c8.6-8.6,13.4-20.1,13.4-32.3l0-0.8l30.8-30.8C707.8,712.3,701.8,748.1,677.5,772.4z M804.5,732.7   c0,16.1-13.1,29.3-29.3,29.3H702c15.9-27.5,17.1-61.2,3.5-89.6l19.5-19.5c12.8,6.2,26.9,9.5,41.5,9.5c13.3,0,26.2-2.7,38.1-7.9   V732.7z M874.2,575.7L825,624.9c-15.6,15.6-36.4,24.2-58.5,24.2c-11,0-21.7-2.1-31.6-6.2l30.8-30.8l0.8,0   c12.2,0,23.7-4.7,32.3-13.4l49.2-49.2c17.8-17.8,17.8-46.8,0-64.7c-17.8-17.8-46.8-17.8-64.7,0l-49.2,49.2   c-8.6,8.6-13.4,20.1-13.4,32.3l0,0.8L690,598c-12.3-30-6.4-65.8,18-90.1l49.2-49.2c16.1-16.1,37.3-24.2,58.5-24.2   c21.2,0,42.4,8.1,58.5,24.2C906.5,490.9,906.5,543.4,874.2,575.7z"></path>
</g>
</svg>