<svg xmlns="http://www.w3.org/2000/svg" xmlns:xlink="http://www.w3.org/1999/xlink" id="Layer_1" x="0px" y="0px" viewBox="0 0 500 500" style="enable-background:new 0 0 500 500;" xml:space="preserve">
<style type="text/css">
	.st0{opacity:0.5;}
	.st1{fill:url(#SVGID_1_);}
	.st2{fill:#FFFFFF;}
	.st3{fill:url(#SVGID_2_);}
	.st4{fill:url(#SVGID_3_);}
	.st5{fill:url(#SVGID_4_);}
	.st6{opacity:0.5;fill:url(#SVGID_5_);enable-background:new    ;}
	.st7{opacity:0.5;fill:url(#SVGID_6_);enable-background:new    ;}
	.st8{opacity:0.5;fill:url(#SVGID_7_);enable-background:new    ;}
	.st9{fill:url(#SVGID_8_);}
	.st10{opacity:0.5;fill:url(#SVGID_9_);enable-background:new    ;}
	.st11{fill:url(#SVGID_10_);}
	.st12{fill:url(#SVGID_11_);}
	.st13{fill:url(#SVGID_12_);}
	.st14{fill:url(#SVGID_13_);}
	.st15{fill:url(#SVGID_14_);}
	.st16{fill:url(#SVGID_15_);}
	.st17{fill:url(#SVGID_16_);}
	.st18{fill:url(#SVGID_17_);}
	.st19{fill:url(#SVGID_18_);}
	.st20{fill:url(#SVGID_19_);}
	.st21{fill:url(#SVGID_20_);}
	.st22{fill:url(#SVGID_21_);}
	.st23{fill:url(#SVGID_22_);}
	.st24{fill:url(#SVGID_23_);}
	.st25{fill:url(#SVGID_24_);}
</style>
<g class="st0">
	<g>
		
			<linearGradient id="SVGID_1_" gradientUnits="userSpaceOnUse" x1="49.3405" y1="251.8171" x2="449.8233" y2="251.8171" gradientTransform="matrix(1 0 0 -1 0 502)">
			<stop offset="0" style="stop-color:#764BA2"></stop>
			<stop offset="1" style="stop-color:#667EEA"></stop>
		</linearGradient>
		<path class="st1" d="M123.8,158c1.8-37.5,27.9-63.1,70.7-66c41.4-2.9,106.4,32.6,129.6,45.5c23.2,12.9,77.2,29.5,91.6,83    c12.8,47.7-9.8,81.1-67.8,101.6c-58,20.5-67,40.6-99,61.8c-40.5,26.9-82.4,34.5-115.8,9c-29.1-22.3-35.7-56.8-28.5-92.2    C114.7,250.7,121.2,210.3,123.8,158z"></path>
	</g>
</g>
<g>
	<rect x="190.8" y="307.5" class="st2" width="173.3" height="8.1"></rect>
	<circle class="st2" cx="144.3" cy="154.1" r="1.7"></circle>
	<path class="st2" d="M396,153.1c0-7.2-5.8-13-13-13H116.6c-7.2,0-13,5.8-13,13v15.7H396L396,153.1L396,153.1z M124.3,161.8   c-4.2,0-7.6-3.4-7.6-7.6c0-4.2,3.4-7.6,7.6-7.6c4.2,0,7.6,3.4,7.6,7.6C131.9,158.4,128.5,161.8,124.3,161.8z M144.3,161.8   c-4.2,0-7.6-3.4-7.6-7.6c0-4.2,3.4-7.6,7.6-7.6s7.6,3.4,7.6,7.6C151.9,158.4,148.5,161.8,144.3,161.8z M164.3,161.8   c-4.2,0-7.6-3.4-7.6-7.6c0-4.2,3.4-7.6,7.6-7.6c4.2,0,7.6,3.4,7.6,7.6C172,158.4,168.5,161.8,164.3,161.8z"></path>
	<path class="st2" d="M103.5,347.3c0,7.2,5.8,13,13,13h266.4c7.2,0,13-5.8,13-13V174.6H103.5V347.3z M282.7,210.1l9.1-1.3   c0.3,0,0.6-0.2,0.7-0.5l4.1-8.3c0.3-0.7,1.3-0.7,1.7,0l4.1,8.3c0.1,0.3,0.4,0.5,0.7,0.5l9.1,1.3c0.8,0.1,1.1,1.1,0.5,1.6l-6.6,6.4   c-0.2,0.2-0.3,0.5-0.3,0.8l1.6,9.1c0.1,0.8-0.7,1.4-1.4,1l-8.2-4.3c-0.3-0.1-0.6-0.1-0.9,0l-8.2,4.3c-0.7,0.4-1.5-0.2-1.4-1   l1.6-9.1c0.1-0.3,0-0.6-0.3-0.8l-6.6-6.4C281.7,211.2,282,210.2,282.7,210.1z M235.7,210.1l9.1-1.3c0.3,0,0.6-0.2,0.7-0.5l4.1-8.3   c0.3-0.7,1.3-0.7,1.7,0l4.1,8.3c0.1,0.3,0.4,0.5,0.7,0.5l9.1,1.3c0.8,0.1,1.1,1.1,0.5,1.6l-6.6,6.4c-0.2,0.2-0.3,0.5-0.3,0.8   l1.6,9.1c0.1,0.8-0.7,1.4-1.4,1l-8.2-4.3c-0.3-0.1-0.6-0.1-0.9,0l-8.2,4.3c-0.7,0.4-1.5-0.2-1.4-1l1.6-9.1c0.1-0.3,0-0.6-0.3-0.8   l-6.6-6.4C234.6,211.2,234.9,210.2,235.7,210.1z M188.7,210.1l9.1-1.3c0.3,0,0.6-0.2,0.7-0.5l4.1-8.3c0.3-0.7,1.3-0.7,1.7,0   l4.1,8.3c0.1,0.3,0.4,0.5,0.7,0.5l9.1,1.3c0.8,0.1,1.1,1.1,0.5,1.6l-6.6,6.4c-0.2,0.2-0.3,0.5-0.3,0.8l1.6,9.1   c0.1,0.8-0.7,1.4-1.4,1l-8.2-4.3c-0.3-0.1-0.6-0.1-0.9,0l-8.2,4.3c-0.7,0.4-1.5-0.2-1.4-1l1.6-9.1c0.1-0.3,0-0.6-0.3-0.8l-6.6-6.4   C187.6,211.2,187.9,210.2,188.7,210.1z M184.9,251.7c0-1.6,1.3-2.9,2.9-2.9H367c1.6,0,2.9,1.3,2.9,2.9v14c0,1.6-1.3,2.9-2.9,2.9   H187.9c-1.6,0-2.9-1.3-2.9-2.9V251.7z M370,282.6c0,1.6-1.3,2.9-2.9,2.9h-54c-1.6,0-2.9-1.3-2.9-2.9c0-1.6,1.3-2.9,2.9-2.9h54   C368.7,279.7,370,281,370,282.6z M187.9,279.7h115.2c1.6,0,2.9,1.3,2.9,2.9c0,1.6-1.3,2.9-2.9,2.9H187.9c-1.6,0-2.9-1.3-2.9-2.9   C184.9,281,186.2,279.7,187.9,279.7z M184.9,304.5c0-1.6,1.3-2.9,2.9-2.9H367c1.6,0,2.9,1.3,2.9,2.9v14c0,1.6-1.3,2.9-2.9,2.9   H187.9c-1.6,0-2.9-1.3-2.9-2.9V304.5z M187.9,332.5h102.8c1.6,0,2.9,1.3,2.9,2.9c0,1.6-1.3,2.9-2.9,2.9H187.9   c-1.6,0-2.9-1.3-2.9-2.9C184.9,333.9,186.2,332.5,187.9,332.5z M150.8,330.8c-2,2-4.5,3-7.3,3c-2.9,0-5.3-1-7.3-3   c-2-2-3.1-4.5-3.1-7.3v-1h5.8v1c0,1.3,0.4,2.4,1.3,3.2c0.9,0.9,2,1.3,3.3,1.3c1.3,0,2.3-0.4,3.2-1.3c0.9-0.9,1.3-2,1.3-3.2   c0-1.3-0.4-2.3-1.3-3.2c-0.9-0.9-2-1.3-3.2-1.3h-6.6l4.8-6.9h-6.8v-5.8h17.9l-5.4,7.6c1.3,0.3,2.7,1.4,4.2,3.3   c1.5,1.9,2.2,4,2.2,6.4C153.8,326.3,152.8,328.8,150.8,330.8z M136.1,200.6h8.9v27.5h-5.8v-21.7h-3.1L136.1,200.6L136.1,200.6z    M147,260.1c-0.7-0.6-1.5-1-2.4-1c-0.9,0-1.8,0.3-2.4,1c-0.6,0.7-1,1.8-1,3.4h-5.9v-1c0-2.5,0.9-4.7,2.7-6.5c1.8-1.8,4-2.7,6.5-2.7   c2.5,0,4.7,0.9,6.5,2.7c1.8,1.8,2.7,4,2.7,6.5c0,2.1-0.6,4-1.9,5.7l-0.1,0.1l-0.4,0.5l-2.4,2.8l-0.2,0.2l-3.1,3.4h8.3v5.9h-21.3   l9.5-10.6l5.3-6c0.4-0.6,0.7-1.3,0.7-2C148,261.6,147.6,260.8,147,260.1z"></path>
	<rect x="190.8" y="254.6" class="st2" width="173.3" height="8.1"></rect>
	<circle class="st2" cx="164.3" cy="154.1" r="1.7"></circle>
	<circle class="st2" cx="124.3" cy="154.1" r="1.7"></circle>
</g>
<g>
	
		<linearGradient id="SVGID_2_" gradientUnits="userSpaceOnUse" x1="49.3405" y1="97.0527" x2="449.8233" y2="97.0527" gradientTransform="matrix(1 0 0 -1 0 502)">
		<stop offset="0" style="stop-color:#764BA2"></stop>
		<stop offset="1" style="stop-color:#667EEA"></stop>
	</linearGradient>
	<path class="st3" d="M319.5,393.8c-6.2,0-11.2,5-11.2,11.2c0,6.2,5,11.2,11.2,11.2s11.2-5,11.2-11.2S325.7,393.8,319.5,393.8z    M319.5,410.2c-2.9,0-5.3-2.4-5.3-5.3c0-2.9,2.4-5.3,5.3-5.3s5.3,2.4,5.3,5.3C324.8,407.9,322.4,410.2,319.5,410.2z"></path>
	
		<linearGradient id="SVGID_3_" gradientUnits="userSpaceOnUse" x1="49.3405" y1="391.867" x2="449.8233" y2="391.867" gradientTransform="matrix(1 0 0 -1 0 502)">
		<stop offset="0" style="stop-color:#764BA2"></stop>
		<stop offset="1" style="stop-color:#667EEA"></stop>
	</linearGradient>
	<path class="st4" d="M230.7,110.1c0-4.7-3.8-8.4-8.4-8.4c-4.7,0-8.4,3.8-8.4,8.4c0,4.7,3.8,8.4,8.4,8.4   C226.9,118.6,230.7,114.8,230.7,110.1z M219.7,110.1c0-1.4,1.1-2.5,2.6-2.5c1.4,0,2.6,1.1,2.6,2.5c0,1.4-1.1,2.6-2.6,2.6   C220.9,112.7,219.7,111.5,219.7,110.1z"></path>
	
		<linearGradient id="SVGID_4_" gradientUnits="userSpaceOnUse" x1="49.3405" y1="386.3733" x2="449.8233" y2="386.3733" gradientTransform="matrix(1 0 0 -1 0 502)">
		<stop offset="0" style="stop-color:#764BA2"></stop>
		<stop offset="1" style="stop-color:#667EEA"></stop>
	</linearGradient>
	<path class="st5" d="M417.6,107.2c-4.7,0-8.4,3.8-8.4,8.4s3.8,8.4,8.4,8.4s8.4-3.8,8.4-8.4S422.3,107.2,417.6,107.2z M417.6,118.2   c-1.4,0-2.6-1.1-2.6-2.6c0-1.4,1.1-2.6,2.6-2.6c1.4,0,2.5,1.1,2.5,2.6C420.2,117,419,118.2,417.6,118.2z"></path>
	
		<linearGradient id="SVGID_5_" gradientUnits="userSpaceOnUse" x1="49.3405" y1="208.3738" x2="449.8233" y2="208.3738" gradientTransform="matrix(1 0 0 -1 0 502)">
		<stop offset="0" style="stop-color:#764BA2"></stop>
		<stop offset="1" style="stop-color:#667EEA"></stop>
	</linearGradient>
	<path class="st6" d="M59,302.1c4.7,0,8.4-3.8,8.4-8.4c0-4.7-3.8-8.4-8.4-8.4s-8.4,3.8-8.4,8.4C50.6,298.3,54.4,302.1,59,302.1z    M59,291.1c1.4,0,2.6,1.1,2.6,2.6s-1.1,2.6-2.6,2.6s-2.6-1.1-2.6-2.6S57.6,291.1,59,291.1z"></path>
	
		<linearGradient id="SVGID_6_" gradientUnits="userSpaceOnUse" x1="49.3405" y1="441.5584" x2="449.8233" y2="441.5584" gradientTransform="matrix(1 0 0 -1 0 502)">
		<stop offset="0" style="stop-color:#764BA2"></stop>
		<stop offset="1" style="stop-color:#667EEA"></stop>
	</linearGradient>
	<path class="st7" d="M369.1,51.9c-1.1-1.1-3-1.1-4.2,0l-4.4,4.4l-4.4-4.4c-1.1-1.1-3-1.1-4.2,0c-1.1,1.1-1.1,3,0,4.2l4.4,4.4   l-4.4,4.4c-1.1,1.1-1.1,3,0,4.2c0.6,0.6,1.3,0.9,2.1,0.9s1.5-0.3,2.1-0.9l4.4-4.4L365,69c0.6,0.6,1.3,0.9,2.1,0.9s1.5-0.3,2.1-0.9   c1.1-1.1,1.1-3,0-4.2l-4.4-4.4l4.4-4.4C370.3,54.9,370.3,53,369.1,51.9z"></path>
	
		<linearGradient id="SVGID_7_" gradientUnits="userSpaceOnUse" x1="49.3405" y1="405.5091" x2="449.8233" y2="405.5091" gradientTransform="matrix(1 0 0 -1 0 502)">
		<stop offset="0" style="stop-color:#764BA2"></stop>
		<stop offset="1" style="stop-color:#667EEA"></stop>
	</linearGradient>
	<path class="st8" d="M81.3,103.2c0.6,0.6,1.3,0.9,2.1,0.9c0.8,0,1.5-0.3,2.1-0.9l2.6-2.6l2.6,2.6c0.6,0.6,1.3,0.9,2.1,0.9   c0.8,0,1.5-0.3,2.1-0.9c1.1-1.1,1.1-3,0-4.2l-2.6-2.6l2.6-2.6c1.1-1.1,1.1-3,0-4.2s-3-1.1-4.2,0L88,92.3l-2.6-2.6   c-1.1-1.1-3-1.1-4.2,0c-1.1,1.1-1.1,3,0,4.2l2.6,2.6l-2.6,2.6C80.1,100.2,80.1,102.1,81.3,103.2z"></path>
	
		<linearGradient id="SVGID_8_" gradientUnits="userSpaceOnUse" x1="49.3405" y1="60.2366" x2="449.8233" y2="60.2366" gradientTransform="matrix(1 0 0 -1 0 502)">
		<stop offset="0" style="stop-color:#764BA2"></stop>
		<stop offset="1" style="stop-color:#667EEA"></stop>
	</linearGradient>
	<path class="st9" d="M143.9,435c-1.1-1.1-3-1.1-4.2,0l-2.6,2.6l-2.6-2.6c-1.1-1.1-3-1.1-4.2,0c-1.1,1.1-1.1,3,0,4.2l2.6,2.6   l-2.6,2.6c-1.1,1.1-1.1,3,0,4.2c0.6,0.6,1.3,0.9,2.1,0.9c0.8,0,1.5-0.3,2.1-0.9l2.6-2.6l2.6,2.6c0.6,0.6,1.3,0.9,2.1,0.9   s1.5-0.3,2.1-0.9c1.1-1.1,1.1-3,0-4.2l-2.6-2.6l2.6-2.6C145,438,145,436.2,143.9,435z"></path>
	
		<linearGradient id="SVGID_9_" gradientUnits="userSpaceOnUse" x1="49.3405" y1="110.8861" x2="449.8233" y2="110.8861" gradientTransform="matrix(1 0 0 -1 0 502)">
		<stop offset="0" style="stop-color:#764BA2"></stop>
		<stop offset="1" style="stop-color:#667EEA"></stop>
	</linearGradient>
	<path class="st10" d="M448.1,384.4c-1.1-1.1-3-1.1-4.2,0l-2.6,2.6l-2.6-2.6c-1.1-1.1-3-1.1-4.2,0c-1.1,1.1-1.1,3,0,4.2l2.6,2.6   l-2.6,2.6c-1.1,1.1-1.1,3,0,4.2c0.6,0.6,1.3,0.9,2.1,0.9s1.5-0.3,2.1-0.9l2.6-2.6l2.6,2.6c0.6,0.6,1.3,0.9,2.1,0.9s1.5-0.3,2.1-0.9   c1.1-1.1,1.1-3,0-4.2l-2.6-2.6l2.6-2.6C449.2,387.4,449.2,385.5,448.1,384.4z"></path>
	
		<linearGradient id="SVGID_10_" gradientUnits="userSpaceOnUse" x1="49.3405" y1="251.8163" x2="449.8233" y2="251.8163" gradientTransform="matrix(1 0 0 -1 0 502)">
		<stop offset="0" style="stop-color:#764BA2"></stop>
		<stop offset="1" style="stop-color:#667EEA"></stop>
	</linearGradient>
	<path class="st11" d="M97.7,153.1v18.6v175.6c0,10.4,8.5,18.9,18.9,18.9h266.4c10.4,0,18.9-8.5,18.9-18.9V171.7v-18.6   c0-10.4-8.5-18.9-18.9-18.9H116.6C106.1,134.2,97.7,142.6,97.7,153.1z M396,347.3c0,7.2-5.8,13-13,13H116.6c-7.2,0-13-5.8-13-13   V174.6H396L396,347.3L396,347.3z M396,153.1v15.7H103.5v-15.7c0-7.2,5.8-13,13-13h266.4C390.1,140.1,396,145.9,396,153.1z"></path>
	
		<linearGradient id="SVGID_11_" gradientUnits="userSpaceOnUse" x1="49.3405" y1="347.8533" x2="449.8233" y2="347.8533" gradientTransform="matrix(1 0 0 -1 0 502)">
		<stop offset="0" style="stop-color:#764BA2"></stop>
		<stop offset="1" style="stop-color:#667EEA"></stop>
	</linearGradient>
	<path class="st12" d="M124.3,161.8c4.2,0,7.6-3.4,7.6-7.6c0-4.2-3.4-7.6-7.6-7.6c-4.2,0-7.6,3.4-7.6,7.6   C116.6,158.4,120.1,161.8,124.3,161.8z M124.3,152.4c1,0,1.7,0.8,1.7,1.7s-0.8,1.7-1.7,1.7s-1.7-0.8-1.7-1.7   S123.3,152.4,124.3,152.4z"></path>
	
		<linearGradient id="SVGID_12_" gradientUnits="userSpaceOnUse" x1="49.3405" y1="347.8533" x2="449.8233" y2="347.8533" gradientTransform="matrix(1 0 0 -1 0 502)">
		<stop offset="0" style="stop-color:#764BA2"></stop>
		<stop offset="1" style="stop-color:#667EEA"></stop>
	</linearGradient>
	<path class="st13" d="M144.3,161.8c4.2,0,7.6-3.4,7.6-7.6c0-4.2-3.4-7.6-7.6-7.6s-7.6,3.4-7.6,7.6   C136.7,158.4,140.1,161.8,144.3,161.8z M144.3,152.4c1,0,1.7,0.8,1.7,1.7s-0.8,1.7-1.7,1.7s-1.7-0.8-1.7-1.7   S143.3,152.4,144.3,152.4z"></path>
	
		<linearGradient id="SVGID_13_" gradientUnits="userSpaceOnUse" x1="49.3405" y1="347.8533" x2="449.8233" y2="347.8533" gradientTransform="matrix(1 0 0 -1 0 502)">
		<stop offset="0" style="stop-color:#764BA2"></stop>
		<stop offset="1" style="stop-color:#667EEA"></stop>
	</linearGradient>
	<path class="st14" d="M164.3,161.8c4.2,0,7.6-3.4,7.6-7.6c0-4.2-3.4-7.6-7.6-7.6c-4.2,0-7.6,3.4-7.6,7.6   C156.7,158.4,160.1,161.8,164.3,161.8z M164.3,152.4c1,0,1.7,0.8,1.7,1.7s-0.8,1.7-1.7,1.7s-1.7-0.8-1.7-1.7   S163.4,152.4,164.3,152.4z"></path>
	
		<linearGradient id="SVGID_14_" gradientUnits="userSpaceOnUse" x1="49.3405" y1="287.6695" x2="449.8233" y2="287.6695" gradientTransform="matrix(1 0 0 -1 0 502)">
		<stop offset="0" style="stop-color:#764BA2"></stop>
		<stop offset="1" style="stop-color:#667EEA"></stop>
	</linearGradient>
	<polygon class="st15" points="139.1,228.1 145,228.1 145,200.6 136.1,200.6 136.1,206.4 139.1,206.4  "></polygon>
	
		<linearGradient id="SVGID_15_" gradientUnits="userSpaceOnUse" x1="49.3405" y1="234.826" x2="449.8233" y2="234.826" gradientTransform="matrix(1 0 0 -1 0 502)">
		<stop offset="0" style="stop-color:#764BA2"></stop>
		<stop offset="1" style="stop-color:#667EEA"></stop>
	</linearGradient>
	<path class="st16" d="M141.9,270.5l-9.5,10.6h21.3v-5.9h-8.3l3.1-3.4l0.2-0.2l2.4-2.8l0.4-0.5l0.1-0.1c1.3-1.7,1.9-3.6,1.9-5.7   c0-2.5-0.9-4.7-2.7-6.5c-1.8-1.8-4-2.7-6.5-2.7c-2.5,0-4.7,0.9-6.5,2.7s-2.7,4-2.7,6.5v1h5.9c0-1.6,0.3-2.8,1-3.4   c0.7-0.6,1.5-1,2.4-1c0.9,0,1.7,0.3,2.4,1c0.7,0.7,1,1.5,1,2.4c0,0.8-0.2,1.4-0.7,2L141.9,270.5z"></path>
	
		<linearGradient id="SVGID_16_" gradientUnits="userSpaceOnUse" x1="49.3405" y1="181.9873" x2="449.8233" y2="181.9873" gradientTransform="matrix(1 0 0 -1 0 502)">
		<stop offset="0" style="stop-color:#764BA2"></stop>
		<stop offset="1" style="stop-color:#667EEA"></stop>
	</linearGradient>
	<path class="st17" d="M147.4,313.8l5.4-7.6h-17.9v5.8h6.8l-4.8,6.9h6.6c1.3,0,2.3,0.4,3.2,1.3c0.9,0.9,1.3,2,1.3,3.2   c0,1.3-0.4,2.4-1.3,3.2c-0.9,0.9-2,1.3-3.2,1.3c-1.3,0-2.4-0.4-3.3-1.3c-0.9-0.9-1.3-2-1.3-3.2v-1h-5.8v1c0,2.9,1,5.3,3.1,7.3   c2,2,4.5,3,7.3,3c2.8,0,5.3-1,7.3-3c2-2,3-4.5,3-7.3c0-2.4-0.7-4.5-2.2-6.4C150.2,315.2,148.8,314.2,147.4,313.8z"></path>
	
		<linearGradient id="SVGID_17_" gradientUnits="userSpaceOnUse" x1="49.3405" y1="287.6711" x2="449.8233" y2="287.6711" gradientTransform="matrix(1 0 0 -1 0 502)">
		<stop offset="0" style="stop-color:#764BA2"></stop>
		<stop offset="1" style="stop-color:#667EEA"></stop>
	</linearGradient>
	<path class="st18" d="M194.8,218.2c0.2,0.2,0.3,0.5,0.3,0.8l-1.6,9.1c-0.1,0.8,0.7,1.4,1.4,1l8.2-4.3c0.3-0.1,0.6-0.1,0.9,0   l8.2,4.3c0.7,0.4,1.5-0.2,1.4-1l-1.6-9.1c-0.1-0.3,0-0.6,0.3-0.8l6.6-6.4c0.6-0.5,0.3-1.5-0.5-1.6l-9.1-1.3c-0.3,0-0.6-0.2-0.7-0.5   l-4.1-8.3c-0.3-0.7-1.3-0.7-1.7,0l-4.1,8.3c-0.1,0.3-0.4,0.5-0.7,0.5l-9.1,1.3c-0.8,0.1-1.1,1.1-0.5,1.6L194.8,218.2z"></path>
	
		<linearGradient id="SVGID_18_" gradientUnits="userSpaceOnUse" x1="49.3405" y1="287.6711" x2="449.8233" y2="287.6711" gradientTransform="matrix(1 0 0 -1 0 502)">
		<stop offset="0" style="stop-color:#764BA2"></stop>
		<stop offset="1" style="stop-color:#667EEA"></stop>
	</linearGradient>
	<path class="st19" d="M241.8,218.2c0.2,0.2,0.3,0.5,0.3,0.8l-1.6,9.1c-0.1,0.8,0.7,1.4,1.4,1l8.2-4.3c0.3-0.1,0.6-0.1,0.9,0   l8.2,4.3c0.7,0.4,1.5-0.2,1.4-1l-1.6-9.1c-0.1-0.3,0-0.6,0.3-0.8l6.6-6.4c0.6-0.5,0.3-1.5-0.5-1.6l-9.1-1.3c-0.3,0-0.6-0.2-0.7-0.5   l-4.1-8.3c-0.3-0.7-1.3-0.7-1.7,0l-4.1,8.3c-0.1,0.3-0.4,0.5-0.7,0.5l-9.1,1.3c-0.8,0.1-1.1,1.1-0.5,1.6L241.8,218.2z"></path>
	
		<linearGradient id="SVGID_19_" gradientUnits="userSpaceOnUse" x1="49.3405" y1="287.6711" x2="449.8233" y2="287.6711" gradientTransform="matrix(1 0 0 -1 0 502)">
		<stop offset="0" style="stop-color:#764BA2"></stop>
		<stop offset="1" style="stop-color:#667EEA"></stop>
	</linearGradient>
	<path class="st20" d="M288.8,218.2c0.2,0.2,0.3,0.5,0.3,0.8l-1.6,9.1c-0.1,0.8,0.7,1.4,1.4,1l8.2-4.3c0.3-0.1,0.6-0.1,0.9,0   l8.2,4.3c0.7,0.4,1.5-0.2,1.4-1l-1.6-9.1c-0.1-0.3,0-0.6,0.3-0.8l6.6-6.4c0.6-0.5,0.3-1.5-0.5-1.6l-9.1-1.3c-0.3,0-0.6-0.2-0.7-0.5   l-4.1-8.3c-0.3-0.7-1.3-0.7-1.7,0l-4.1,8.3c-0.1,0.3-0.4,0.5-0.7,0.5l-9.1,1.3c-0.8,0.1-1.1,1.1-0.5,1.6L288.8,218.2z"></path>
	
		<linearGradient id="SVGID_20_" gradientUnits="userSpaceOnUse" x1="49.3405" y1="243.3143" x2="449.8233" y2="243.3143" gradientTransform="matrix(1 0 0 -1 0 502)">
		<stop offset="0" style="stop-color:#764BA2"></stop>
		<stop offset="1" style="stop-color:#667EEA"></stop>
	</linearGradient>
	<path class="st21" d="M187.9,268.6H367c1.6,0,2.9-1.3,2.9-2.9v-14c0-1.6-1.3-2.9-2.9-2.9H187.9c-1.6,0-2.9,1.3-2.9,2.9v14   C184.9,267.3,186.2,268.6,187.9,268.6z M190.8,254.6h173.3v8.1H190.8V254.6z"></path>
	
		<linearGradient id="SVGID_21_" gradientUnits="userSpaceOnUse" x1="49.3405" y1="219.3613" x2="449.8233" y2="219.3613" gradientTransform="matrix(1 0 0 -1 0 502)">
		<stop offset="0" style="stop-color:#764BA2"></stop>
		<stop offset="1" style="stop-color:#667EEA"></stop>
	</linearGradient>
	<path class="st22" d="M187.9,285.6h115.2c1.6,0,2.9-1.3,2.9-2.9c0-1.6-1.3-2.9-2.9-2.9H187.9c-1.6,0-2.9,1.3-2.9,2.9   C184.9,284.3,186.2,285.6,187.9,285.6z"></path>
	
		<linearGradient id="SVGID_22_" gradientUnits="userSpaceOnUse" x1="49.3405" y1="219.3613" x2="449.8233" y2="219.3613" gradientTransform="matrix(1 0 0 -1 0 502)">
		<stop offset="0" style="stop-color:#764BA2"></stop>
		<stop offset="1" style="stop-color:#667EEA"></stop>
	</linearGradient>
	<path class="st23" d="M367,279.7h-54c-1.6,0-2.9,1.3-2.9,2.9c0,1.6,1.3,2.9,2.9,2.9h54c1.6,0,2.9-1.3,2.9-2.9   C370,281,368.7,279.7,367,279.7z"></path>
	
		<linearGradient id="SVGID_23_" gradientUnits="userSpaceOnUse" x1="49.3405" y1="190.4727" x2="449.8233" y2="190.4727" gradientTransform="matrix(1 0 0 -1 0 502)">
		<stop offset="0" style="stop-color:#764BA2"></stop>
		<stop offset="1" style="stop-color:#667EEA"></stop>
	</linearGradient>
	<path class="st24" d="M187.9,321.4H367c1.6,0,2.9-1.3,2.9-2.9v-14c0-1.6-1.3-2.9-2.9-2.9H187.9c-1.6,0-2.9,1.3-2.9,2.9v14   C184.9,320.1,186.2,321.4,187.9,321.4z M190.8,307.5h173.3v8.1H190.8V307.5z"></path>
	
		<linearGradient id="SVGID_24_" gradientUnits="userSpaceOnUse" x1="49.3405" y1="166.5198" x2="449.8233" y2="166.5198" gradientTransform="matrix(1 0 0 -1 0 502)">
		<stop offset="0" style="stop-color:#764BA2"></stop>
		<stop offset="1" style="stop-color:#667EEA"></stop>
	</linearGradient>
	<path class="st25" d="M187.9,338.4h102.8c1.6,0,2.9-1.3,2.9-2.9c0-1.6-1.3-2.9-2.9-2.9H187.9c-1.6,0-2.9,1.3-2.9,2.9   C184.9,337.1,186.2,338.4,187.9,338.4z"></path>
</g>
</svg>