<svg xmlns="http://www.w3.org/2000/svg" xmlns:xlink="http://www.w3.org/1999/xlink" id="Layer_1" x="0px" y="0px" viewBox="0 0 511.999 511.999" style="enable-background:new 0 0 511.999 511.999;" xml:space="preserve">
<g>
	<g>
		<path d="M167.681,94.891H46.588c-4.602,0-8.332,3.731-8.332,8.332v199.971c0,4.602,3.731,8.332,8.332,8.332h121.093    c4.602,0,8.332-3.731,8.332-8.332V103.223C176.013,98.622,172.283,94.891,167.681,94.891z M159.349,294.862H54.92V111.555h104.429    V294.862z"></path>
	</g>
</g>
<g>
	<g>
		<path d="M316.548,94.891H195.455c-4.602,0-8.332,3.731-8.332,8.332v199.971c0,4.602,3.731,8.332,8.332,8.332h121.094    c4.602,0,8.332-3.731,8.332-8.332V103.223C324.881,98.622,321.15,94.891,316.548,94.891z M308.216,294.862H203.787V111.555    h104.429V294.862z"></path>
	</g>
</g>
<g>
	<g>
		<path d="M465.416,94.891H344.322c-4.602,0-8.332,3.731-8.332,8.332v199.971c0,4.602,3.731,8.332,8.332,8.332h121.094    c4.602,0,8.332-3.731,8.332-8.332V103.223C473.748,98.622,470.017,94.891,465.416,94.891z M352.654,294.862V111.555h104.429    v183.307H352.654z"></path>
	</g>
</g>
<g>
	<g>
		<path d="M107.134,132.108c-18.377,0-33.328,14.951-33.328,33.328c0,18.377,14.951,33.328,33.328,33.328    c18.377,0,33.328-14.951,33.328-33.328C140.463,147.059,125.512,132.108,107.134,132.108z M107.134,182.101    c-9.189,0-16.664-7.476-16.664-16.664c0-9.188,7.476-16.664,16.664-16.664c9.189,0,16.664,7.476,16.664,16.664    C123.798,174.625,116.323,182.101,107.134,182.101z"></path>
	</g>
</g>
<g>
	<g>
		<path d="M132.131,213.763H82.138c-4.602,0-8.332,3.731-8.332,8.332c0,4.602,3.731,8.332,8.332,8.332h49.993    c4.602,0,8.332-3.731,8.332-8.332C140.463,217.493,136.732,213.763,132.131,213.763z"></path>
	</g>
</g>
<g>
	<g>
		<path d="M132.131,242.648H82.138c-4.602,0-8.332,3.731-8.332,8.332s3.731,8.332,8.332,8.332h49.993    c4.602,0,8.332-3.731,8.332-8.332S136.732,242.648,132.131,242.648z"></path>
	</g>
</g>
<g>
	<g>
		<path d="M256.002,132.108c-18.377,0-33.329,14.951-33.329,33.328c0,18.377,14.951,33.328,33.329,33.328    c18.377,0,33.328-14.951,33.328-33.328C289.33,147.059,274.379,132.108,256.002,132.108z M256.002,182.101    c-9.189,0-16.664-7.476-16.664-16.664c0-9.188,7.476-16.664,16.664-16.664c9.189,0,16.664,7.476,16.664,16.664    C272.666,174.625,265.19,182.101,256.002,182.101z"></path>
	</g>
</g>
<g>
	<g>
		<path d="M280.998,213.763h-49.993c-4.602,0-8.332,3.731-8.332,8.332c0,4.602,3.731,8.332,8.332,8.332h49.993    c4.602,0,8.332-3.731,8.332-8.332C289.33,217.493,285.6,213.763,280.998,213.763z"></path>
	</g>
</g>
<g>
	<g>
		<path d="M280.998,242.648h-49.993c-4.602,0-8.332,3.731-8.332,8.332s3.731,8.332,8.332,8.332h49.993    c4.602,0,8.332-3.731,8.332-8.332S285.6,242.648,280.998,242.648z"></path>
	</g>
</g>
<g>
	<g>
		<path d="M404.869,132.108c-18.377,0-33.328,14.951-33.328,33.328c0,18.377,14.951,33.328,33.328,33.328    s33.328-14.951,33.328-33.328C438.197,147.059,423.246,132.108,404.869,132.108z M404.869,182.101    c-9.189,0-16.664-7.476-16.664-16.664c0-9.188,7.476-16.664,16.664-16.664s16.664,7.476,16.664,16.664    C421.533,174.625,414.058,182.101,404.869,182.101z"></path>
	</g>
</g>
<g>
	<g>
		<path d="M429.865,213.763h-49.993c-4.602,0-8.332,3.731-8.332,8.332c0,4.602,3.731,8.332,8.332,8.332h49.993    c4.602,0,8.332-3.731,8.332-8.332C438.197,217.493,434.467,213.763,429.865,213.763z"></path>
	</g>
</g>
<g>
	<g>
		<path d="M429.865,242.648h-49.993c-4.602,0-8.332,3.731-8.332,8.332s3.731,8.332,8.332,8.332h49.993    c4.602,0,8.332-3.731,8.332-8.332S434.467,242.648,429.865,242.648z"></path>
	</g>
</g>
<g>
	<g>
		<path d="M471.246,24.766H40.754C18.283,24.766,0,43.049,0,65.52v59.227c0,4.602,3.731,8.332,8.332,8.332    c4.601,0,8.332-3.731,8.332-8.332V65.52c0-13.284,10.807-24.09,24.09-24.09h430.492c13.284,0,24.09,10.807,24.09,24.09v284.411    h-52.21c-4.602,0-8.332,3.731-8.332,8.332s3.731,8.332,8.332,8.332h52.21v15.273c0,13.284-10.807,24.09-24.09,24.09h-155.41    H196.164H40.754c-13.284,0-24.09-10.807-24.09-24.09v-15.273h398.688c4.602,0,8.332-3.731,8.332-8.332s-3.731-8.332-8.332-8.332    H16.664V152.522c0-4.602-3.731-8.332-8.332-8.332c-4.601,0-8.332,3.73-8.332,8.332V381.87c0,22.472,18.283,40.754,40.754,40.754    H183.54l-20.494,47.945h-40.034c-4.602,0-8.332,3.731-8.332,8.332s3.731,8.332,8.332,8.332h265.975    c4.602,0,8.332-3.731,8.332-8.332s-3.731-8.332-8.332-8.332h-40.034l-20.494-47.945h142.786c22.472,0,40.754-18.282,40.754-40.754    V65.52C512,43.049,493.717,24.766,471.246,24.766z M330.83,470.568H181.17l14.238-33.31h121.185L330.83,470.568z"></path>
	</g>
</g>
<g>
	<g>
		<path d="M262.924,379.679c-1.914-2.906-5.583-4.299-8.952-3.457c-3.517,0.879-6.116,4.048-6.291,7.67    c-0.364,7.534,9.106,11.629,14.33,6.172C264.674,387.282,265.089,382.887,262.924,379.679z"></path>
	</g>
</g>
<g>
</g>
<g>
</g>
<g>
</g>
<g>
</g>
<g>
</g>
<g>
</g>
<g>
</g>
<g>
</g>
<g>
</g>
<g>
</g>
<g>
</g>
<g>
</g>
<g>
</g>
<g>
</g>
<g>
</g>
</svg>