<svg xmlns="http://www.w3.org/2000/svg" viewBox="0 0 64 64" width="512" height="512"><g id="Outline"><g><path d="M3,56a1,1,0,0,0,0,2H61a1,1,0,0,0,0-2H58.816A2.966,2.966,0,0,0,59,55V52a1,1,0,0,0-2,0v3a1,1,0,0,1-1,1H43V45a1,1,0,0,1,1-1H56a1,1,0,0,1,1,1v3a1,1,0,0,0,2,0V45a3,3,0,0,0-3-3H44a3,3,0,0,0-2.819,2.01,5,5,0,0,1-4.155-.376l-3.9-2.253,1.531-3.828,4.357,2.609a1,1,0,0,0,1.38-.358l3.414-5.915a2.117,2.117,0,0,1,2.721-.931,2,2,0,0,1,.828,2.784l-1.8,3.113a1,1,0,1,0,1.732,1l1.8-3.113a4.018,4.018,0,0,0,.37-3.138A3.948,3.948,0,0,0,48,31.537v-2.06l8.628,3.452A1,1,0,0,0,58,32V24a1,1,0,0,0-2,0v6.523l-8-3.2V20.677l8-3.2V20a1,1,0,0,0,2,0V16a1,1,0,0,0-1.372-.929L46.807,19H43a5,5,0,0,0-1,9.9v4.12l-2.832,4.905-7.756-4.645a8.985,8.985,0,0,0-2.76-1.063A6.977,6.977,0,0,0,31,27V26a1,1,0,0,0-2,0v1a4.993,4.993,0,0,1-4.692,4.969A7.976,7.976,0,0,0,27,26V21a1,1,0,0,0-.758-.97l-.931-.233a4.738,4.738,0,0,1-3.362-3.113,1,1,0,0,0-1.656-.391l-.464.464A11,11,0,0,1,12,20a1,1,0,0,0,0,2,12.973,12.973,0,0,0,8.688-3.3,6.731,6.731,0,0,0,4.138,3.042l.174.044V26a6,6,0,0,1-12,0V25a1,1,0,0,0-2,0v1a7.976,7.976,0,0,0,2.726,6H8a4,4,0,0,1-4-4v-.036a5.642,5.642,0,0,0,5-5.6A10.239,10.239,0,0,1,18.812,12,10,10,0,0,1,29,22a1,1,0,0,0,2,0A12,12,0,0,0,18.776,10,12.249,12.249,0,0,0,7,22.365,3.64,3.64,0,0,1,3.365,26H3a1,1,0,0,0-1,1v1a6.007,6.007,0,0,0,4.366,5.768A6.977,6.977,0,0,0,4,39v8a7,7,0,0,0,6,6.92V56ZM44,31.145V29h2v1.773A4,4,0,0,0,44,31.145ZM40,24a3,3,0,0,1,3-3h3v6H43A3,3,0,0,1,40,24ZM21,50a3.959,3.959,0,0,0-.556-2H22a1,1,0,0,1,1,1v7H17V54A4,4,0,0,0,21,50Zm10,0H29V48h2Zm0,2v4H25V52ZM21,46H19V43h2Zm16.171,8H41v2H40A3.006,3.006,0,0,1,37.171,54ZM21.951,33.429a3.954,3.954,0,0,1-1.122,2.328L19,37.586l-1.829-1.829a3.954,3.954,0,0,1-1.122-2.328,7.911,7.911,0,0,0,5.9,0ZM6,39a5.006,5.006,0,0,1,5-5h3.1a5.956,5.956,0,0,0,1.658,3.171l2.536,2.536a1,1,0,0,0,1.414,0l2.536-2.536A5.956,5.956,0,0,0,23.9,34h2.887a7,7,0,0,1,3.6.995l2.534,1.517-1.543,3.859L29.5,39.289a1,1,0,0,0-1.5.866V43a1,1,0,0,0,2,0V41.887l6.026,3.479A7.009,7.009,0,0,0,41,46.141V52H36a1,1,0,0,0-1,1,4.948,4.948,0,0,0,1.026,3H33V47a1,1,0,0,0-1-1H28a1,1,0,0,0-1,1v3H25V49a3,3,0,0,0-2-2.816V42a1,1,0,0,0-1-1H18a1,1,0,0,0-1,1v4H12V40a1,1,0,0,0-2,0v1H6Zm0,8V43h4v4a1,1,0,0,0,1,1h6a2,2,0,0,1,0,4H11A5.006,5.006,0,0,1,6,47Zm6,7h3v2H12Z"></path><path d="M61,60H3a1,1,0,0,0,0,2H61a1,1,0,0,0,0-2Z"></path><path d="M21.707,24.707a.416.416,0,0,1,.586,0,1,1,0,0,0,1.414-1.414,2.417,2.417,0,0,0-3.414,0,1,1,0,0,0,1.414,1.414Z"></path><path d="M14.293,23.293a1,1,0,0,0,1.414,1.414.416.416,0,0,1,.586,0,1,1,0,0,0,1.414-1.414A2.417,2.417,0,0,0,14.293,23.293Z"></path><path d="M16.555,27.168a1,1,0,0,0-1.11,1.664,6.391,6.391,0,0,0,7.11,0,1,1,0,1,0-1.11-1.664A4.4,4.4,0,0,1,16.555,27.168Z"></path><path d="M50,51a1,1,0,0,0,0,2,3,3,0,1,0-3-3,1,1,0,0,0,2,0,1,1,0,1,1,1,1Z"></path><path d="M33,12a1,1,0,0,1,1,1,1,1,0,0,0,2,0,3,3,0,0,0-3-3,1,1,0,0,0,0,2Z"></path><path d="M33,8a5.006,5.006,0,0,1,5,5,1,1,0,0,0,2,0,7.008,7.008,0,0,0-7-7,1,1,0,0,0,0,2Z"></path><path d="M33,4a9.011,9.011,0,0,1,9,9,1,1,0,0,0,2,0A11.013,11.013,0,0,0,33,2a1,1,0,0,0,0,2Z"></path></g></g></svg>