<svg xmlns="http://www.w3.org/2000/svg" xmlns:xlink="http://www.w3.org/1999/xlink" id="Capa_1" x="0px" y="0px" viewBox="0 0 508.1 508.1" style="enable-background:new 0 0 508.1 508.1;" xml:space="preserve">
<g>
	<g>
		<g>
			<path d="M107.2,328.55c18.1,0,32.8-14.7,32.8-32.8c0-6.7-2.1-13-5.6-18.2l56.4-100c0.3,0.2,0.6,0.2,0.9,0.3     c1.8,0.8,3.7,1.5,5.7,2c0.3,0.1,0.6,0.2,0.9,0.3c2.3,0.5,4.7,0.8,7.2,0.8c2.7,0,5.3-0.4,7.8-1c0.6-0.1,1.2-0.4,1.8-0.6     c1.7-0.5,3.2-1.1,4.8-1.9c0.4-0.2,0.9-0.3,1.3-0.5l37.2,50.5c-0.9,1.5-1.7,3-2.4,4.6c-0.1,0.2-0.2,0.5-0.3,0.7     c-0.6,1.6-1.1,3.2-1.5,4.8c-0.1,0.5-0.2,0.9-0.3,1.4c-0.4,1.9-0.6,3.9-0.6,5.9c0,18.1,14.7,32.8,32.8,32.8     c18.1,0,32.8-14.7,32.8-32.8c0-1.9-0.2-3.8-0.6-5.7c-0.1-0.5-0.2-1.1-0.3-1.6c-0.4-1.6-0.8-3.1-1.4-4.6c-0.3-0.9-0.7-1.7-1.1-2.5     c-0.1-0.3-0.3-0.6-0.4-0.9l71.7-86.4c4.3,2.1,9,3.3,14.1,3.3c18.1,0,32.8-14.7,32.8-32.8c0-18.1-14.7-32.8-32.8-32.8     s-32.9,15.1-32.9,33.2c0,7.1,2.3,13.6,6.1,19l-70.3,84.7c-5.1-3.3-11.2-5.3-17.8-5.3c-5.6,0-10.9,1.6-15.5,4.1l-37.3-50.7     c3.2-5.1,5.2-11,5.2-17.5c0-18.1-14.7-32.8-32.8-32.8c-18.1,0-32.8,14.7-32.8,32.8c0,6.7,2,13,5.5,18.2l-56.5,100.1     c-4.4-2.2-9.3-3.6-14.6-3.6c-18.1,0-32.8,14.7-32.8,32.8C74.5,313.85,89.2,328.55,107.2,328.55z M400.8,97.65     c9,0,16.4,7.3,16.4,16.4c0,9-7.3,16.4-16.4,16.4c-9,0-16.4-7.3-16.4-16.4S391.7,97.65,400.8,97.65z M269.9,241.85     c0-0.2,0.1-0.4,0.2-0.5c0.2-0.9,0.4-1.7,0.8-2.5c0-0.1,0.1-0.1,0.1-0.2c2.5-5.8,8.3-9.8,15-9.8c4.5-0.1,8.5,1.7,11.4,4.5l1.1,1.3     c1.8,2.1,3.9,5.7,3.9,10.5c0,9-7.3,16.4-16.4,16.4c-9.1,0-16.4-7.3-16.4-16.4C269.6,244.05,269.7,242.95,269.9,241.85z      M205.6,131.85c9,0,16.4,7.3,16.4,16.4c0,4.8-2.1,9-5.3,12c-6,5.5-15.8,5.5-21.9,0.1c-3.4-3-5.5-7.3-5.5-12.2     C189.2,139.25,196.5,131.85,205.6,131.85z M107.2,279.35c9,0,16.4,7.3,16.4,16.4c0,9-7.3,16.4-16.4,16.4c-9,0-16.4-7.3-16.4-16.4     C90.9,286.75,98.2,279.35,107.2,279.35z"></path>
			<path d="M475.2,0.05H32.8C14.7,0.05,0,14.75,0,32.85c0,18.1,14.7,32.8,32.8,32.8v270.4c0,13.6,11,24.6,24.6,24.6h78.8L87,508.05     h50l13.7-41h206.7l13.7,41h50l-49.2-147.5h78.8c13.6,0,24.6-11,24.6-24.6V65.55c18.1,0,32.8-14.7,32.8-32.8     C508,14.75,493.3,0.05,475.2,0.05z M398.3,491.65h-15.5l-13.7-41H138.9l-13.7,41h-15.5l43.7-131.1h15.5l-19.1,57.4h208.5     l-19.1-57.4h15.5L398.3,491.65z M172.5,401.55l13.7-41h135.7l13.6,41H172.5z M458.9,335.95h-0.1c0,4.5-3.7,8.2-8.2,8.2h-84.2h-50     H191.6h-50H57.4c-4.5,0-8.2-3.7-8.2-8.2V65.55h409.7V335.95z M475.2,49.25H32.8c-9,0-16.4-7.3-16.4-16.4c0-9,7.3-16.4,16.4-16.4     h442.5c9,0,16.4,7.3,16.4,16.4C491.6,41.85,484.3,49.25,475.2,49.25z"></path>
		</g>
	</g>
</g>
<g>
</g>
<g>
</g>
<g>
</g>
<g>
</g>
<g>
</g>
<g>
</g>
<g>
</g>
<g>
</g>
<g>
</g>
<g>
</g>
<g>
</g>
<g>
</g>
<g>
</g>
<g>
</g>
<g>
</g>
</svg>