<svg xmlns="http://www.w3.org/2000/svg" xmlns:xlink="http://www.w3.org/1999/xlink" id="Capa_1" x="0px" y="0px" viewBox="0 0 512.086 512.086" style="enable-background:new 0 0 512.086 512.086;" xml:space="preserve">
<g>
	<g>
		<g>
			<path d="M98.452,96.886L75.94,74.134c-8.094,8.019-15.641,16.572-22.592,25.6l25.328,19.504     C84.764,111.355,91.37,103.888,98.452,96.886z"></path>
			<path d="M145.924,60.934l-15.76-27.856c-9.894,5.614-19.408,11.872-28.48,18.736l19.328,25.504     C128.94,71.304,137.263,65.831,145.924,60.934z"></path>
			<path d="M384.043,34.319C345.133,11.855,300.997,0.026,256.068,0.022c-32.613-0.057-64.933,6.157-95.2,18.304l11.904,29.696     c114.838-46.01,245.23,9.785,291.241,124.623c46.01,114.837-9.785,245.23-124.623,291.241     C224.553,509.895,94.16,454.1,48.15,339.262C22.6,275.493,27.725,203.527,62.052,144.022l-27.712-16     c-70.692,122.443-28.74,279.01,93.703,349.703s279.01,28.74,349.703-93.703S506.486,105.011,384.043,34.319z"></path>
			<polygon points="192.068,374.646 395.38,171.334 372.756,148.71 192.068,329.398 139.38,276.71 116.756,299.334    "></polygon>
		</g>
	</g>
</g>
<g>
</g>
<g>
</g>
<g>
</g>
<g>
</g>
<g>
</g>
<g>
</g>
<g>
</g>
<g>
</g>
<g>
</g>
<g>
</g>
<g>
</g>
<g>
</g>
<g>
</g>
<g>
</g>
<g>
</g>
</svg>