<svg xmlns="http://www.w3.org/2000/svg" height="480pt" viewBox="0 0 480 480" width="480pt"><path d="m160 168c-8.835938 0-16 7.164062-16 16v16c0 8.835938 7.164062 16 16 16h12.175781c.847657 2.375 1.8125 4.707031 2.894531 6.984375l-8.605468 8.617187c-6.246094 6.246094-6.246094 16.375 0 22.621094l11.3125 11.3125c6.246094 6.246094 16.375 6.246094 22.621094 0l8.617187-8.605468c2.277344 1.082031 4.609375 2.046874 6.984375 2.894531v12.175781c0 8.835938 7.164062 16 16 16h16c8.835938 0 16-7.164062 16-16v-12.175781c2.375-.847657 4.707031-1.8125 6.984375-2.894531l8.617187 8.605468c6.246094 6.246094 16.375 6.246094 22.621094 0l11.3125-11.3125c6.246094-6.246094 6.246094-16.375 0-22.621094l-8.605468-8.617187c1.082031-2.277344 2.046874-4.609375 2.894531-6.984375h12.175781c8.835938 0 16-7.164062 16-16v-16c0-8.835938-7.164062-16-16-16h-12.175781c-.847657-2.375-1.8125-4.707031-2.894531-6.984375l8.605468-8.617187c6.246094-6.246094 6.246094-16.375 0-22.621094l-11.3125-11.3125c-6.246094-6.246094-16.375-6.246094-22.621094 0l-8.617187 8.605468c-2.277344-1.082031-4.609375-2.046874-6.984375-2.894531v-12.175781c0-8.835938-7.164062-16-16-16h-16c-8.835938 0-16 7.164062-16 16v12.175781c-2.375.847657-4.707031 1.8125-6.984375 2.894531l-8.617187-8.605468c-6.246094-6.246094-16.375-6.246094-22.621094 0l-11.3125 11.3125c-6.246094 6.246094-6.246094 16.375 0 22.621094l8.605468 8.617187c-1.082031 2.277344-2.046874 4.609375-2.894531 6.984375zm30.566406-14.121094-12.796875-12.800781 11.308594-11.308594 12.800781 12.796875c2.582032 2.585938 6.585938 3.089844 9.730469 1.234375 4.496094-2.648437 9.34375-4.65625 14.398437-5.960937 3.53125-.910156 6-4.097656 6-7.742188v-18.097656h16v18.097656c0 3.644532 2.46875 6.832032 6 7.742188 5.054688 1.304687 9.902344 3.3125 14.398438 5.960937 3.144531 1.855469 7.148438 1.351563 9.730469-1.234375l12.800781-12.796875 11.308594 11.308594-12.796875 12.800781c-2.582031 2.582032-3.089844 6.585938-1.234375 9.730469 2.648437 4.496094 4.65625 9.34375 5.960937 14.398437.910157 3.53125 4.097657 6 7.746094 6h18.078125v16h-18.097656c-3.644532 0-6.832032 2.46875-7.742188 6-1.304687 5.054688-3.3125 9.902344-5.960937 14.398438-1.855469 3.144531-1.351563 7.148438 1.234375 9.730469l12.796875 12.800781-11.308594 11.308594-12.800781-12.796875c-2.582032-2.582031-6.585938-3.089844-9.730469-1.234375-4.496094 2.648437-9.34375 4.65625-14.398437 5.960937-3.53125.910157-6 4.097657-6 7.746094v18.078125h-15.992188v-18.097656c0-3.644532-2.46875-6.832032-6-7.742188-5.054688-1.304687-9.902344-3.3125-14.398438-5.960937-3.144531-1.855469-7.148437-1.351563-9.730468 1.234375l-12.800782 12.796875-11.308593-11.308594 12.796875-12.800781c2.585937-2.582032 3.089844-6.585938 1.234375-9.730469-2.648438-4.496094-4.65625-9.34375-5.960938-14.398437-.910156-3.53125-4.097656-6-7.742187-6h-18.089844v-15.992188h18.097656c3.644532 0 6.832032-2.46875 7.742188-6 1.304687-5.054688 3.3125-9.902344 5.960937-14.398438 1.851563-3.144531 1.347657-7.140624-1.234375-9.722656zm0 0"></path><path d="m240 232c22.089844 0 40-17.910156 40-40s-17.910156-40-40-40-40 17.910156-40 40c.027344 22.082031 17.917969 39.972656 40 40zm0-64c13.253906 0 24 10.746094 24 24s-10.746094 24-24 24-24-10.746094-24-24 10.746094-24 24-24zm0 0"></path><path d="m363.3125 128h12.6875v-16h-16c-2.121094 0-4.15625.84375-5.65625 2.34375l-24 24 11.3125 11.3125zm0 0"></path><path d="m392 112h40v16h-40zm0 0"></path><path d="m392 144h40v16h-40zm0 0"></path><path d="m392 224h40v16h-40zm0 0"></path><path d="m392 256h40v16h-40zm0 0"></path><path d="m344 240h32v16h-32zm0 0"></path><path d="m138.34375 149.65625 11.3125-11.3125-24-24c-1.5-1.5-3.535156-2.34375-5.65625-2.34375h-16v16h12.6875zm0 0"></path><path d="m48 112h40v16h-40zm0 0"></path><path d="m48 144h40v16h-40zm0 0"></path><path d="m48 224h40v16h-40zm0 0"></path><path d="m48 256h40v16h-40zm0 0"></path><path d="m104 240h32v16h-32zm0 0"></path><path d="m440 0h-400c-22.082031.0273438-39.9726562 17.917969-40 40v304c.0273438 22.082031 17.917969 39.972656 40 40h134.9375l-6 48h-16.9375c-13.253906 0-24 10.746094-24 24s10.746094 24 24 24h176c13.253906 0 24-10.746094 24-24s-10.746094-24-24-24h-16.9375l-6-48h134.9375c22.082031-.027344 39.972656-17.917969 40-40v-304c-.027344-22.082031-17.917969-39.9726562-40-40zm-400 16h400c13.253906 0 24 10.746094 24 24v24h-448v-24c0-13.253906 10.746094-24 24-24zm424 64v224h-448v-224zm-128 376c0 4.417969-3.582031 8-8 8h-176c-4.417969 0-8-3.582031-8-8s3.582031-8 8-8h176c4.417969 0 8 3.582031 8 8zm-41.0625-24h-109.875l6-48h97.875zm145.0625-64h-400c-13.253906 0-24-10.746094-24-24v-24h448v24c0 13.253906-10.746094 24-24 24zm0 0"></path><path d="m416 336h16v16h-16zm0 0"></path><path d="m48 32h16v16h-16zm0 0"></path><path d="m80 32h16v16h-16zm0 0"></path><path d="m112 32h16v16h-16zm0 0"></path></svg>